<?xml version="1.0" encoding="utf-8"?>
<!-- Generator: Adobe Illustrator 24.3.0, SVG Export Plug-In . SVG Version: 6.00 Build 0)  -->
<svg version="1.1" id="Layer_1" xmlns="http://www.w3.org/2000/svg" xmlns:xlink="http://www.w3.org/1999/xlink" x="0px" y="0px"
	 viewBox="0 0 127.56 127.56" style="enable-background:new 0 0 127.56 127.56;" xml:space="preserve">
<style type="text/css">
	.st0{fill:#414042;}
	.st1{fill:#C1B3D2;}
	.st2{fill:#FFFFFF;}
	.st3{fill:#BCCAC0;}
	.st4{fill:#CED8DD;}
	.st5{fill:none;stroke:#414042;stroke-width:2.059;stroke-miterlimit:10;}
	.st6{fill:none;stroke:#414042;stroke-width:3;stroke-miterlimit:10;}
	.st7{fill:none;stroke:#414042;stroke-width:1.5;stroke-miterlimit:10;}
</style>
<path class="st0" d="M12.66,92.89c5.52,5.51,10.98,10.97,16.31,16.3c1.4-1.4,2.89-2.88,4.51-4.5c-1.94-1.88-3.96-3.82-5.9-5.69
	c0.78-0.86,1.48-1.64,2.22-2.45c2.04,2.04,4.05,4.01,6.01,6.02c0.53,0.54,1.06,0.75,1.82,0.75c13.12-0.02,26.24-0.02,39.35,0
	c0.83,0,1.41-0.23,2-0.82c11.84-11.87,23.71-23.72,35.56-35.58c0.27-0.27,0.53-0.56,0.83-0.88c-1.4-1.4-2.7-2.74-4.05-4.01
	c-0.25-0.23-0.71-0.32-1.08-0.33c-1.94-0.03-3.87,0.02-5.81-0.03c-0.83-0.02-1.41,0.22-2.01,0.82c-6.62,6.66-13.27,13.28-19.9,19.94
	c-0.5,0.51-1,0.73-1.72,0.71c-1.64-0.05-3.3,0.12-4.93-0.05c-2.01-0.21-3.54,0.35-4.71,1.99c-0.55,0.77-1.3,0.99-2.26,0.98
	c-6.21-0.04-12.42-0.02-18.64-0.02h-1.16v-3.29h1.29c5.48,0,10.96-0.06,16.44,0.04c1.49,0.03,2.55-0.37,3.5-1.48
	c0.53-0.61,0.87-1.16,0.83-2c-0.07-1.57-0.02-3.14-0.02-4.71c0-1.57-1.82-3.38-3.41-3.38c-10.78,0-21.56,0.01-32.34-0.02
	c-0.8,0-1.35,0.23-1.91,0.79c-6.73,6.76-13.48,13.49-20.22,20.24C13.03,92.47,12.79,92.74,12.66,92.89 M120.07,66.26
	c-0.33,0.26-0.69,0.5-0.99,0.8c-12.92,12.91-25.84,25.82-38.74,38.75c-0.56,0.56-1.11,0.8-1.91,0.8
	c-13.56-0.03-27.11-0.01-40.67-0.04c-0.88,0-1.49,0.26-2.09,0.88c-2.18,2.26-4.41,4.46-6.56,6.63
	c-7.08-7.08-14.07-14.08-21.15-21.16c0.13-0.13,0.36-0.4,0.6-0.65c7.88-7.88,15.76-15.75,23.63-23.64c0.54-0.54,1.08-0.73,1.83-0.73
	c11.69,0.02,23.38,0.02,35.08,0c0.79,0,1.37,0.19,1.92,0.79c1.08,1.18,2.68,2.12,3.24,3.49c0.58,1.42,0.17,3.23,0.19,4.87
	c0.01,0.87,0,1.74,0,2.76c1.99,0,3.91,0.03,5.83-0.03c0.32-0.01,0.64-0.43,0.92-0.71c6.62-6.61,13.24-13.21,19.83-19.84
	c0.62-0.62,1.23-0.87,2.11-0.86c2.67,0.05,5.34,0.06,8,0c0.93-0.02,1.56,0.29,2.19,0.93c2.22,2.27,4.49,4.5,6.74,6.74V66.26z"/>
<path class="st6" d="M12.66,92.89c5.52,5.51,10.98,10.97,16.31,16.3c1.4-1.4,2.89-2.88,4.51-4.5c-1.94-1.88-3.96-3.82-5.9-5.69
	c0.78-0.86,1.48-1.64,2.22-2.45c2.04,2.04,4.05,4.01,6.01,6.02c0.53,0.54,1.06,0.75,1.82,0.75c13.12-0.02,26.24-0.02,39.35,0
	c0.83,0,1.41-0.23,2-0.82c11.84-11.87,23.71-23.72,35.56-35.58c0.27-0.27,0.53-0.56,0.83-0.88c-1.4-1.4-2.7-2.74-4.05-4.01
	c-0.25-0.23-0.71-0.32-1.08-0.33c-1.94-0.03-3.87,0.02-5.81-0.03c-0.83-0.02-1.41,0.22-2.01,0.82c-6.62,6.66-13.27,13.28-19.9,19.94
	c-0.5,0.51-1,0.73-1.72,0.71c-1.64-0.05-3.3,0.12-4.93-0.05c-2.01-0.21-3.54,0.35-4.71,1.99c-0.55,0.77-1.3,0.99-2.26,0.98
	c-6.21-0.04-12.42-0.02-18.64-0.02h-1.16v-3.29h1.29c5.48,0,10.96-0.06,16.44,0.04c1.49,0.03,2.55-0.37,3.5-1.48
	c0.53-0.61,0.87-1.16,0.83-2c-0.07-1.57-0.02-3.14-0.02-4.71c0-1.57-1.82-3.38-3.41-3.38c-10.78,0-21.56,0.01-32.34-0.02
	c-0.8,0-1.35,0.23-1.91,0.79c-6.73,6.76-13.48,13.49-20.22,20.24C13.03,92.47,12.79,92.74,12.66,92.89z M120.07,66.26
	c-0.33,0.26-0.69,0.5-0.99,0.8c-12.92,12.91-25.84,25.82-38.74,38.75c-0.56,0.56-1.11,0.8-1.91,0.8
	c-13.56-0.03-27.11-0.01-40.67-0.04c-0.88,0-1.49,0.26-2.09,0.88c-2.18,2.26-4.41,4.46-6.56,6.63
	c-7.08-7.08-14.07-14.08-21.15-21.16c0.13-0.13,0.36-0.4,0.6-0.65c7.88-7.88,15.76-15.75,23.63-23.64c0.54-0.54,1.08-0.73,1.83-0.73
	c11.69,0.02,23.38,0.02,35.08,0c0.79,0,1.37,0.19,1.92,0.79c1.08,1.18,2.68,2.12,3.24,3.49c0.58,1.42,0.17,3.23,0.19,4.87
	c0.01,0.87,0,1.74,0,2.76c1.99,0,3.91,0.03,5.83-0.03c0.32-0.01,0.64-0.43,0.92-0.71c6.62-6.61,13.24-13.21,19.83-19.84
	c0.62-0.62,1.23-0.87,2.11-0.86c2.67,0.05,5.34,0.06,8,0c0.93-0.02,1.56,0.29,2.19,0.93c2.22,2.27,4.49,4.5,6.74,6.74V66.26z"/>
<path class="st0" d="M60.86,12.18c1.5,1.54,3.02,3.06,4.51,4.61c0.98,1.03,1.93,2.09,2.85,3.09c3.28-1.41,6.55-2.83,9.92-4.28
	c1.01,2.44,1.98,4.79,2.99,7.23c-1.04,0.4-2.01,0.77-3.05,1.17c-0.57-1.35-1.12-2.65-1.73-4.1c-2.13,0.95-4.17,1.86-6.28,2.8
	c0.62,1.36,1.19,2.6,1.8,3.93c-1.04,0.4-1.98,0.76-2.87,1.1c-1.2-1.99-2.23-4.04-3.58-5.86c-1.34-1.8-2.99-3.37-4.53-5.07
	c-3.52,3.18-6.46,6.56-8.07,11.01c-1.08-0.4-2.05-0.77-3.13-1.17c0.61-1.32,1.16-2.54,1.8-3.93c-2.05-0.92-4.09-1.85-6.26-2.83
	c-0.59,1.4-1.14,2.69-1.74,4.1c-0.99-0.37-1.96-0.73-3.06-1.14c1-2.43,1.97-4.79,2.99-7.25c3.36,1.45,6.63,2.87,9.87,4.26
	c2.43-2.53,4.89-5.11,7.36-7.69H60.86z"/>
<path class="st7" d="M60.86,12.18c1.5,1.54,3.02,3.06,4.51,4.61c0.98,1.03,1.93,2.09,2.85,3.09c3.28-1.41,6.55-2.83,9.92-4.28
	c1.01,2.44,1.98,4.79,2.99,7.23c-1.04,0.4-2.01,0.77-3.05,1.17c-0.57-1.35-1.12-2.65-1.73-4.1c-2.13,0.95-4.17,1.86-6.28,2.8
	c0.62,1.36,1.19,2.6,1.8,3.93c-1.04,0.4-1.98,0.76-2.87,1.1c-1.2-1.99-2.23-4.04-3.58-5.86c-1.34-1.8-2.99-3.37-4.53-5.07
	c-3.52,3.18-6.46,6.56-8.07,11.01c-1.08-0.4-2.05-0.77-3.13-1.17c0.61-1.32,1.16-2.54,1.8-3.93c-2.05-0.92-4.09-1.85-6.26-2.83
	c-0.59,1.4-1.14,2.69-1.74,4.1c-0.99-0.37-1.96-0.73-3.06-1.14c1-2.43,1.97-4.79,2.99-7.25c3.36,1.45,6.63,2.87,9.87,4.26
	c2.43-2.53,4.89-5.11,7.36-7.69H60.86z"/>
<path class="st0" d="M62.51,58.45C79.66,60,91.23,46.63,89.47,31.47C73.55,29.78,60.92,42.02,62.51,58.45 M59.02,58.46
	c1.73-17.27-12.16-28.89-27.01-26.94C30.52,47.52,42.51,59.91,59.02,58.46 M92.82,28.13c0.24,6.64,0.35,13.16-2.95,19.17
	c-4.31,7.86-10.8,12.82-19.7,14.09c-6.37,0.91-12.87,0.96-19.22-0.05c-8.69-1.38-15.09-6.29-19.27-14.04
	c-2.18-4.04-3.06-8.4-3.05-12.97c0-2.04,0-4.07,0-6.26c2.34,0,4.6-0.13,6.84,0.03c2.46,0.18,4.99,0.34,7.34,1.01
	c8.26,2.34,14.06,7.6,17.52,15.45c0.12,0.27,0.23,0.53,0.42,0.96c0.35-0.76,0.62-1.41,0.93-2.04c4.97-9.71,12.87-14.92,23.8-15.39
	c2.26-0.1,4.53-0.02,6.79-0.03C92.44,28.08,92.58,28.11,92.82,28.13"/>
<path class="st6" d="M62.51,58.45C79.66,60,91.23,46.63,89.47,31.47C73.55,29.78,60.92,42.02,62.51,58.45z M59.02,58.46
	c1.73-17.27-12.16-28.89-27.01-26.94C30.52,47.52,42.51,59.91,59.02,58.46z M92.82,28.13c0.24,6.64,0.35,13.16-2.95,19.17
	c-4.31,7.86-10.8,12.82-19.7,14.09c-6.37,0.91-12.87,0.96-19.22-0.05c-8.69-1.38-15.09-6.29-19.27-14.04
	c-2.18-4.04-3.06-8.4-3.05-12.97c0-2.04,0-4.07,0-6.26c2.34,0,4.6-0.13,6.84,0.03c2.46,0.18,4.99,0.34,7.34,1.01
	c8.26,2.34,14.06,7.6,17.52,15.45c0.12,0.27,0.23,0.53,0.42,0.96c0.35-0.76,0.62-1.41,0.93-2.04c4.97-9.71,12.87-14.92,23.8-15.39
	c2.26-0.1,4.53-0.02,6.79-0.03C92.44,28.08,92.58,28.11,92.82,28.13z"/>
<path class="st0" d="M78.54,74.12c-0.94-0.89-1.68-1.58-2.45-2.31c0.25-0.27,0.46-0.52,0.69-0.75c4.52-4.52,9.02-9.05,13.57-13.53
	c0.41-0.4,1.11-0.68,1.68-0.71c1.92-0.09,3.86-0.03,5.86-0.03v3.29c-1.43,0-2.88,0.04-4.31-0.02c-0.83-0.03-1.42,0.21-2.01,0.81
	c-4.08,4.13-8.2,8.22-12.29,12.33C79,73.49,78.77,73.82,78.54,74.12"/>
<path class="st0" d="M66.87,31.65c-1.05,0.37-2,0.7-2.82,0.98c-1.39-2.26-2.75-4.47-4.17-6.76c0.59-0.53,1.37-1.22,2.21-1.97
	C64.18,25.94,65.75,28.55,66.87,31.65"/>
<path class="st4" d="M94.99,83.11c0.76-0.74,1.49-1.47,2.08-2.05c-0.68-0.76-1.37-1.53-1.94-2.17c-0.79,0.72-1.53,1.4-2.31,2.11
	C93.56,81.73,94.29,82.43,94.99,83.11 M96.63,77.12c0.77,0.77,1.52,1.51,2.25,2.23c0.79-0.75,1.55-1.48,2.28-2.17
	c-0.75-0.8-1.48-1.57-2.22-2.36C98.15,75.61,97.41,76.35,96.63,77.12 M91.29,82.74c-5.23,5.23-10.44,10.44-15.62,15.61
	c0.64,0.66,1.37,1.39,1.95,1.99c5.22-5.22,10.42-10.42,15.62-15.62C92.63,84.1,91.92,83.38,91.29,82.74 M12.66,92.89
	c0.13-0.14,0.37-0.41,0.62-0.67c6.74-6.74,13.49-13.48,20.22-20.24c0.56-0.56,1.12-0.79,1.91-0.79c10.78,0.02,21.56,0.02,32.34,0.02
	c1.59,0,3.41,1.81,3.41,3.38c0,1.57-0.05,3.14,0.02,4.71c0.04,0.85-0.31,1.39-0.83,2c-0.95,1.11-2.01,1.51-3.5,1.48
	c-5.48-0.1-10.96-0.04-16.44-0.04h-1.29v3.29h1.16c6.21,0,12.42-0.02,18.64,0.02c0.96,0.01,1.71-0.21,2.26-0.98
	c1.16-1.64,2.7-2.21,4.71-1.99c1.63,0.17,3.29,0,4.93,0.05c0.72,0.02,1.21-0.21,1.72-0.71c6.62-6.65,13.28-13.28,19.9-19.94
	c0.59-0.6,1.18-0.84,2.01-0.82c1.93,0.05,3.87,0,5.81,0.03c0.37,0.01,0.84,0.09,1.08,0.33c1.35,1.28,2.65,2.61,4.05,4.01
	c-0.3,0.32-0.56,0.6-0.83,0.87c-11.86,11.86-23.72,23.71-35.56,35.58c-0.59,0.59-1.17,0.83-2,0.82c-13.12-0.02-26.24-0.02-39.35,0
	c-0.76,0-1.29-0.21-1.82-0.75c-1.96-2.01-3.97-3.98-6.01-6.02c-0.73,0.81-1.44,1.59-2.22,2.45c1.93,1.87,3.95,3.81,5.9,5.69
	c-1.62,1.62-3.11,3.1-4.51,4.5C23.64,103.86,18.18,98.4,12.66,92.89"/>
<path class="st1" d="M59.02,58.46c-16.51,1.45-28.5-10.94-27-26.94C46.86,29.57,60.75,41.2,59.02,58.46"/>
<path class="st1" d="M86.56,41.07c-1.1-0.33-2.09-0.62-3.14-0.94c-0.38,0.97-0.73,1.86-1.1,2.8c0.99,0.48,1.92,0.93,2.95,1.43
	C85.73,43.23,86.13,42.2,86.56,41.07 M87.44,35.23h-3.28c-0.09,1.01-0.17,1.97-0.26,2.95c1.1,0.19,2.09,0.35,3.21,0.54
	C87.23,37.5,87.34,36.41,87.44,35.23 M81.46,44.76c-1.32,1.42-2.43,2.85-3.78,3.98c-1.37,1.15-2.99,2.02-4.54,3.04
	c0.4,0.92,0.8,1.86,1.22,2.85c4.09-1.76,7.28-4.46,9.7-8.21C83.13,45.83,82.27,45.28,81.46,44.76 M62.51,58.45
	c-1.59-16.43,11.04-28.67,26.97-26.99C91.23,46.63,79.66,60,62.51,58.45"/>
<path class="st0" d="M91.29,82.73c0.63,0.65,1.34,1.37,1.95,1.99c-5.19,5.19-10.39,10.4-15.62,15.62c-0.59-0.6-1.31-1.34-1.95-1.99
	C80.85,93.17,86.05,87.97,91.29,82.73"/>
<path class="st0" d="M96.63,77.12c0.78-0.77,1.52-1.51,2.31-2.3c0.74,0.79,1.47,1.55,2.22,2.36c-0.73,0.7-1.49,1.42-2.28,2.17
	C98.15,78.63,97.4,77.89,96.63,77.12"/>
<path class="st0" d="M94.99,83.11c-0.71-0.68-1.43-1.38-2.18-2.1c0.77-0.71,1.52-1.39,2.31-2.11c0.57,0.63,1.26,1.4,1.94,2.17
	C96.48,81.64,95.75,82.37,94.99,83.11"/>
<path class="st0" d="M81.46,44.76c0.81,0.52,1.67,1.07,2.61,1.66c-2.42,3.75-5.61,6.45-9.7,8.21c-0.43-1-0.83-1.93-1.22-2.85
	c1.54-1.01,3.16-1.88,4.53-3.04C79.03,47.61,80.14,46.18,81.46,44.76"/>
<path class="st0" d="M87.45,35.23c-0.11,1.18-0.21,2.28-0.32,3.49c-1.12-0.19-2.11-0.35-3.21-0.54c0.08-0.99,0.17-1.94,0.25-2.95
	H87.45z"/>
<path class="st0" d="M86.56,41.07c-0.44,1.13-0.84,2.16-1.28,3.29c-1.03-0.5-1.96-0.95-2.95-1.43c0.37-0.95,0.72-1.84,1.1-2.8
	C84.47,40.45,85.46,40.74,86.56,41.07"/>
</svg>
