<?xml version="1.0" encoding="utf-8"?>
<!-- Generator: Adobe Illustrator 24.3.0, SVG Export Plug-In . SVG Version: 6.00 Build 0)  -->
<svg version="1.1" id="Layer_1" xmlns="http://www.w3.org/2000/svg" xmlns:xlink="http://www.w3.org/1999/xlink" x="0px" y="0px"
	 viewBox="0 0 127.56 127.56" style="enable-background:new 0 0 127.56 127.56;" xml:space="preserve">
<style type="text/css">
	.st0{fill:#414042;}
	.st1{fill:#C1B3D2;}
	.st2{fill:#FFFFFF;}
	.st3{fill:#BCCAC0;}
	.st4{fill:#CED8DD;}
	.st5{fill:none;stroke:#414042;stroke-width:2.059;stroke-miterlimit:10;}
	.st6{fill:none;stroke:#414042;stroke-width:3;stroke-miterlimit:10;}
	.st7{fill:none;stroke:#414042;stroke-width:1.5;stroke-miterlimit:10;}
</style>
<path class="st0" d="M80.09,71.12c-0.03-1.2,0.24-2.37,0.37-3.56c0.08-0.7-0.18-1.02-0.87-1.1c-1.83-0.21-3.65-0.44-5.47-0.69
	c-0.68-0.09-0.96,0.2-1.03,0.84c-0.1,0.95-0.24,1.9-0.37,2.84c-0.13,0.9-0.55,1.36-1.43,1.55c-0.84,0.19-1.67,0.4-2.48,0.68
	c-0.96,0.33-1.55,0.14-2.19-0.68c-0.59-0.75-1.17-1.51-1.76-2.26c-0.34-0.44-0.73-0.49-1.17-0.15c-1.51,1.17-3.02,2.35-4.53,3.52
	c-0.48,0.37-0.51,0.76-0.14,1.23c0.62,0.79,1.24,1.58,1.84,2.38c0.48,0.64,0.53,1.33,0.09,2c-0.51,0.78-0.96,1.59-1.39,2.42
	c-0.41,0.78-1.02,1.07-1.89,0.96c-0.92-0.12-1.85-0.25-2.77-0.35c-0.77-0.09-1.01,0.11-1.11,0.85c-0.23,1.82-0.45,3.65-0.69,5.47
	c-0.08,0.61,0.13,0.96,0.77,1.04c0.9,0.11,1.8,0.24,2.7,0.35c1.16,0.14,1.58,0.54,1.83,1.66c0.06,0.3,0.07,0.62,0.26,0.88
	c-0.01,0.52,0.23,0.96,0.38,1.44c0.28,0.91,0.11,1.5-0.63,2.09c-0.73,0.58-1.47,1.14-2.2,1.72c-0.62,0.49-0.67,0.77-0.21,1.37
	c1.13,1.48,2.28,2.95,3.42,4.42c0.38,0.49,0.81,0.54,1.29,0.16c0.75-0.59,1.51-1.17,2.27-1.75c0.78-0.59,1.37-0.63,2.17-0.1
	c0.72,0.47,1.46,0.9,2.24,1.27c0.78,0.38,1.14,0.99,1.04,1.85c-0.11,1-0.24,1.99-0.37,2.99c-0.07,0.55,0.14,0.88,0.7,0.96
	c1.87,0.24,3.74,0.49,5.62,0.71c0.78,0.09,0.99-0.08,1.1-0.85c0.13-0.95,0.25-1.89,0.37-2.84c0.11-0.87,0.61-1.38,1.45-1.55
	c0.85-0.17,1.67-0.4,2.49-0.68c0.91-0.3,1.54-0.11,2.14,0.67c0.56,0.72,1.11,1.44,1.67,2.15c0.5,0.64,0.77,0.68,1.43,0.18
	c1.44-1.11,2.87-2.22,4.3-3.34c0.62-0.49,0.65-0.79,0.15-1.44c-0.57-0.74-1.15-1.47-1.71-2.21c-0.55-0.73-0.57-1.36-0.08-2.12
	c0.47-0.72,0.9-1.46,1.28-2.24c0.43-0.87,0.99-1.17,1.98-1.05c0.88,0.1,1.75,0.21,2.63,0.34c0.88,0.12,1.12-0.05,1.23-0.94
	c0.23-1.78,0.45-3.55,0.68-5.33c0.1-0.77-0.11-1.03-0.91-1.13c-0.92-0.12-1.85-0.21-2.77-0.35c-0.92-0.14-1.4-0.61-1.58-1.51
	c-0.16-0.82-0.39-1.62-0.66-2.42c-0.31-0.93-0.12-1.54,0.64-2.14c0.71-0.56,1.44-1.11,2.15-1.67c0.64-0.51,0.69-0.8,0.2-1.43
	c-1.12-1.46-2.26-2.9-3.38-4.37c-0.41-0.53-0.82-0.57-1.33-0.15c-0.74,0.6-1.5,1.18-2.26,1.76c-0.71,0.54-1.37,0.57-2.12,0.1
	c-0.67-0.42-1.32-0.87-2.04-1.18C80.77,72.13,80.34,71.73,80.09,71.12 M54.77,79.01c0.89,0.11,1.85,0.2,2.79,0.35
	c0.36,0.06,0.51-0.06,0.65-0.36c0.25-0.51,0.49-1.05,0.84-1.5c0.44-0.56,0.35-0.96-0.11-1.45c-0.5-0.54-0.92-1.16-1.37-1.75
	c-0.86-1.16-0.72-2.55,0.4-3.44c1.57-1.25,3.15-2.49,4.75-3.7c1.13-0.85,2.54-0.64,3.44,0.47c0.57,0.71,1.13,1.42,1.66,2.16
	c0.21,0.28,0.38,0.33,0.71,0.2c0.58-0.22,1.18-0.43,1.78-0.51c0.62-0.08,0.76-0.4,0.8-0.94c0.06-0.81,0.18-1.61,0.3-2.42
	c0.19-1.32,1.33-2.22,2.65-2.07c2.02,0.23,4.03,0.48,6.04,0.76c1.35,0.18,2.2,1.26,2.09,2.62c-0.08,0.9-0.2,1.8-0.33,2.7
	c-0.06,0.4,0.02,0.64,0.43,0.83c0.61,0.27,1.18,0.62,1.74,0.99c0.29,0.19,0.48,0.19,0.75-0.03c0.68-0.56,1.38-1.1,2.09-1.63
	c1.21-0.91,2.6-0.75,3.55,0.44c1.22,1.54,2.41,3.09,3.6,4.65c0.88,1.16,0.69,2.58-0.45,3.49c-0.71,0.57-1.42,1.13-2.15,1.67
	c-0.26,0.19-0.3,0.36-0.2,0.66c0.22,0.68,0.41,1.37,0.57,2.07c0.08,0.32,0.19,0.48,0.55,0.51c0.81,0.07,1.61,0.19,2.42,0.29
	c1.75,0.21,2.61,1.33,2.38,3.06c-0.23,1.68-0.44,3.36-0.63,5.05c-0.24,2.12-1.19,2.9-3.29,2.65c-0.71-0.09-1.43-0.16-2.13-0.28
	c-0.42-0.07-0.63,0.06-0.81,0.45c-0.27,0.58-0.59,1.15-0.95,1.68c-0.22,0.33-0.26,0.54,0.02,0.86c0.54,0.63,1.04,1.31,1.54,1.98
	c0.97,1.28,0.8,2.66-0.45,3.65c-1.48,1.17-2.97,2.33-4.47,3.47c-1.32,1.01-2.66,0.83-3.69-0.47c-0.52-0.65-1.04-1.31-1.53-1.98
	c-0.22-0.29-0.4-0.37-0.77-0.24c-0.6,0.22-1.23,0.38-1.86,0.52c-0.43,0.09-0.64,0.25-0.67,0.73c-0.05,0.83-0.19,1.66-0.3,2.49
	c-0.18,1.39-1.22,2.32-2.61,2.19c-2.07-0.2-4.13-0.46-6.19-0.77c-1.33-0.2-2.14-1.35-1.99-2.7c0.09-0.83,0.19-1.66,0.32-2.49
	c0.07-0.48,0.01-0.78-0.51-0.99c-0.57-0.23-1.1-0.57-1.61-0.92c-0.34-0.24-0.57-0.19-0.87,0.06c-0.66,0.55-1.34,1.08-2.03,1.59
	c-1.21,0.9-2.61,0.72-3.55-0.47c-1.2-1.52-2.38-3.05-3.55-4.59c-0.91-1.2-0.73-2.61,0.44-3.55c0.69-0.55,1.39-1.1,2.1-1.62
	c0.28-0.2,0.34-0.4,0.23-0.72c-0.19-0.54-0.41-1.09-0.47-1.65c-0.07-0.73-0.45-0.93-1.11-0.97c-0.76-0.05-1.52-0.17-2.28-0.28
	c-1.34-0.19-2.25-1.29-2.1-2.62c0.23-2.04,0.49-4.08,0.79-6.11C52.33,79.71,53.36,78.94,54.77,79.01"/>
<path class="st5" d="M80.09,71.12c-0.03-1.2,0.24-2.37,0.37-3.56c0.08-0.7-0.18-1.02-0.87-1.1c-1.83-0.21-3.65-0.44-5.47-0.69
	c-0.68-0.09-0.96,0.2-1.03,0.84c-0.1,0.95-0.24,1.9-0.37,2.84c-0.13,0.9-0.55,1.36-1.43,1.55c-0.84,0.19-1.67,0.4-2.48,0.68
	c-0.96,0.33-1.55,0.14-2.19-0.68c-0.59-0.75-1.17-1.51-1.76-2.26c-0.34-0.44-0.73-0.49-1.17-0.15c-1.51,1.17-3.02,2.35-4.53,3.52
	c-0.48,0.37-0.51,0.76-0.14,1.23c0.62,0.79,1.24,1.58,1.84,2.38c0.48,0.64,0.53,1.33,0.09,2c-0.51,0.78-0.96,1.59-1.39,2.42
	c-0.41,0.78-1.02,1.07-1.89,0.96c-0.92-0.12-1.85-0.25-2.77-0.35c-0.77-0.09-1.01,0.11-1.11,0.85c-0.23,1.82-0.45,3.65-0.69,5.47
	c-0.08,0.61,0.13,0.96,0.77,1.04c0.9,0.11,1.8,0.24,2.7,0.35c1.16,0.14,1.58,0.54,1.83,1.66c0.06,0.3,0.07,0.62,0.26,0.88
	c-0.01,0.52,0.23,0.96,0.38,1.44c0.28,0.91,0.11,1.5-0.63,2.09c-0.73,0.58-1.47,1.14-2.2,1.72c-0.62,0.49-0.67,0.77-0.21,1.37
	c1.13,1.48,2.28,2.95,3.42,4.42c0.38,0.49,0.81,0.54,1.29,0.16c0.75-0.59,1.51-1.17,2.27-1.75c0.78-0.59,1.37-0.63,2.17-0.1
	c0.72,0.47,1.46,0.9,2.24,1.27c0.78,0.38,1.14,0.99,1.04,1.85c-0.11,1-0.24,1.99-0.37,2.99c-0.07,0.55,0.14,0.88,0.7,0.96
	c1.87,0.24,3.74,0.49,5.62,0.71c0.78,0.09,0.99-0.08,1.1-0.85c0.13-0.95,0.25-1.89,0.37-2.84c0.11-0.87,0.61-1.38,1.45-1.55
	c0.85-0.17,1.67-0.4,2.49-0.68c0.91-0.3,1.54-0.11,2.14,0.67c0.56,0.72,1.11,1.44,1.67,2.15c0.5,0.64,0.77,0.68,1.43,0.18
	c1.44-1.11,2.87-2.22,4.3-3.34c0.62-0.49,0.65-0.79,0.15-1.44c-0.57-0.74-1.15-1.47-1.71-2.21c-0.55-0.73-0.57-1.36-0.08-2.12
	c0.47-0.72,0.9-1.46,1.28-2.24c0.43-0.87,0.99-1.17,1.98-1.05c0.88,0.1,1.75,0.21,2.63,0.34c0.88,0.12,1.12-0.05,1.23-0.94
	c0.23-1.78,0.45-3.55,0.68-5.33c0.1-0.77-0.11-1.03-0.91-1.13c-0.92-0.12-1.85-0.21-2.77-0.35c-0.92-0.14-1.4-0.61-1.58-1.51
	c-0.16-0.82-0.39-1.62-0.66-2.42c-0.31-0.93-0.12-1.54,0.64-2.14c0.71-0.56,1.44-1.11,2.15-1.67c0.64-0.51,0.69-0.8,0.2-1.43
	c-1.12-1.46-2.26-2.9-3.38-4.37c-0.41-0.53-0.82-0.57-1.33-0.15c-0.74,0.6-1.5,1.18-2.26,1.76c-0.71,0.54-1.37,0.57-2.12,0.1
	c-0.67-0.42-1.32-0.87-2.04-1.18C80.77,72.13,80.34,71.73,80.09,71.12z M54.77,79.01c0.89,0.11,1.85,0.2,2.79,0.35
	c0.36,0.06,0.51-0.06,0.65-0.36c0.25-0.51,0.49-1.05,0.84-1.5c0.44-0.56,0.35-0.96-0.11-1.45c-0.5-0.54-0.92-1.16-1.37-1.75
	c-0.86-1.16-0.72-2.55,0.4-3.44c1.57-1.25,3.15-2.49,4.75-3.7c1.13-0.85,2.54-0.64,3.44,0.47c0.57,0.71,1.13,1.42,1.66,2.16
	c0.21,0.28,0.38,0.33,0.71,0.2c0.58-0.22,1.18-0.43,1.78-0.51c0.62-0.08,0.76-0.4,0.8-0.94c0.06-0.81,0.18-1.61,0.3-2.42
	c0.19-1.32,1.33-2.22,2.65-2.07c2.02,0.23,4.03,0.48,6.04,0.76c1.35,0.18,2.2,1.26,2.09,2.62c-0.08,0.9-0.2,1.8-0.33,2.7
	c-0.06,0.4,0.02,0.64,0.43,0.83c0.61,0.27,1.18,0.62,1.74,0.99c0.29,0.19,0.48,0.19,0.75-0.03c0.68-0.56,1.38-1.1,2.09-1.63
	c1.21-0.91,2.6-0.75,3.55,0.44c1.22,1.54,2.41,3.09,3.6,4.65c0.88,1.16,0.69,2.58-0.45,3.49c-0.71,0.57-1.42,1.13-2.15,1.67
	c-0.26,0.19-0.3,0.36-0.2,0.66c0.22,0.68,0.41,1.37,0.57,2.07c0.08,0.32,0.19,0.48,0.55,0.51c0.81,0.07,1.61,0.19,2.42,0.29
	c1.75,0.21,2.61,1.33,2.38,3.06c-0.23,1.68-0.44,3.36-0.63,5.05c-0.24,2.12-1.19,2.9-3.29,2.65c-0.71-0.09-1.43-0.16-2.13-0.28
	c-0.42-0.07-0.63,0.06-0.81,0.45c-0.27,0.58-0.59,1.15-0.95,1.68c-0.22,0.33-0.26,0.54,0.02,0.86c0.54,0.63,1.04,1.31,1.54,1.98
	c0.97,1.28,0.8,2.66-0.45,3.65c-1.48,1.17-2.97,2.33-4.47,3.47c-1.32,1.01-2.66,0.83-3.69-0.47c-0.52-0.65-1.04-1.31-1.53-1.98
	c-0.22-0.29-0.4-0.37-0.77-0.24c-0.6,0.22-1.23,0.38-1.86,0.52c-0.43,0.09-0.64,0.25-0.67,0.73c-0.05,0.83-0.19,1.66-0.3,2.49
	c-0.18,1.39-1.22,2.32-2.61,2.19c-2.07-0.2-4.13-0.46-6.19-0.77c-1.33-0.2-2.14-1.35-1.99-2.7c0.09-0.83,0.19-1.66,0.32-2.49
	c0.07-0.48,0.01-0.78-0.51-0.99c-0.57-0.23-1.1-0.57-1.61-0.92c-0.34-0.24-0.57-0.19-0.87,0.06c-0.66,0.55-1.34,1.08-2.03,1.59
	c-1.21,0.9-2.61,0.72-3.55-0.47c-1.2-1.52-2.38-3.05-3.55-4.59c-0.91-1.2-0.73-2.61,0.44-3.55c0.69-0.55,1.39-1.1,2.1-1.62
	c0.28-0.2,0.34-0.4,0.23-0.72c-0.19-0.54-0.41-1.09-0.47-1.65c-0.07-0.73-0.45-0.93-1.11-0.97c-0.76-0.05-1.52-0.17-2.28-0.28
	c-1.34-0.19-2.25-1.29-2.1-2.62c0.23-2.04,0.49-4.08,0.79-6.11C52.33,79.71,53.36,78.94,54.77,79.01z"/>
<path class="st0" d="M41.1,47.7l0.02,0.01c-0.27-0.27-0.63-0.32-0.96-0.43c-1.12-0.4-1.44-0.84-1.44-2.01
	c0-0.81-0.02-1.63,0.01-2.44c0.02-0.65-0.26-0.89-0.9-0.88c-1.72,0.02-3.44,0.02-5.16,0c-0.61-0.01-0.87,0.25-0.86,0.85
	c0.02,0.91,0.01,1.82,0,2.72c-0.01,0.87-0.38,1.38-1.2,1.66c-0.77,0.27-1.51,0.57-2.24,0.93c-0.83,0.41-1.48,0.3-2.15-0.36
	c-0.61-0.6-1.24-1.2-1.82-1.83c-0.47-0.51-0.85-0.46-1.31,0.02c-1.18,1.22-2.39,2.41-3.6,3.6c-0.46,0.45-0.47,0.83,0,1.27
	c0.64,0.61,1.26,1.24,1.88,1.87c0.63,0.64,0.71,1.26,0.34,2.09c-0.31,0.7-0.62,1.39-0.89,2.11c-0.39,1.03-0.8,1.35-1.91,1.37
	c-0.84,0.01-1.67,0.02-2.51,0c-0.65-0.02-0.9,0.28-0.9,0.91c0.01,1.72,0.01,3.44,0,5.16c0,0.6,0.27,0.88,0.87,0.87
	c0.91-0.01,1.82-0.01,2.72,0c0.88,0.01,1.36,0.37,1.67,1.19c0.24,0.62,0.49,1.24,0.74,1.86c0.66,1.41,0.59,1.76-0.53,2.89
	c-0.51,0.51-1.01,1.02-1.52,1.52c-0.41,0.39-0.42,0.77-0.02,1.17c1.25,1.25,2.5,2.5,3.75,3.75c0.4,0.41,0.77,0.39,1.16-0.02
	c0.61-0.64,1.24-1.26,1.88-1.87c0.67-0.66,1.32-0.77,2.15-0.37c0.71,0.34,1.43,0.65,2.18,0.91c0.9,0.32,1.26,0.81,1.27,1.76
	c0.01,0.88,0.01,1.77,0,2.65c-0.01,0.56,0.21,0.84,0.8,0.84c1.77-0.01,3.54-0.01,5.3,0c0.58,0,0.82-0.26,0.82-0.83
	c-0.01-0.88-0.01-1.77,0-2.65c0.02-0.96,0.37-1.45,1.26-1.78c0.77-0.28,1.51-0.59,2.24-0.94c0.75-0.36,1.44-0.25,2.04,0.33
	c0.63,0.62,1.26,1.24,1.87,1.88c0.43,0.45,0.81,0.51,1.27,0.04c1.22-1.25,2.46-2.48,3.7-3.7c0.41-0.41,0.41-0.76,0-1.16
	c-0.67-0.65-1.33-1.31-1.97-1.98c-0.56-0.58-0.68-1.24-0.32-1.97c0.37-0.75,0.69-1.52,0.96-2.31c0.29-0.86,0.8-1.2,1.73-1.21
	c0.84-0.01,1.67,0,2.51,0c0.84-0.01,1.02-0.17,1.02-0.99c0.01-1.67-0.01-3.35,0.01-5.02c0.01-0.69-0.28-0.94-0.95-0.91
	c-0.84,0.03-1.67,0.02-2.51,0c-1.03-0.02-1.49-0.39-1.86-1.37c-0.25-0.67-0.52-1.33-0.82-1.98c-0.47-1.03-0.4-1.55,0.42-2.38
	c0.57-0.58,1.13-1.17,1.73-1.72c0.47-0.44,0.48-0.81,0.02-1.27c-1.23-1.2-2.45-2.42-3.65-3.65c-0.46-0.47-0.84-0.42-1.27,0.03
	c-0.58,0.61-1.18,1.19-1.77,1.78c-0.76,0.75-1.39,0.84-2.33,0.36c-0.21-0.11-0.43-0.2-0.64-0.3C41.3,47.74,41.2,47.72,41.1,47.7
	 M56.74,61.69c0,0.93,0.01,1.86,0,2.8c-0.02,1.41-0.96,2.37-2.39,2.41c-0.84,0.02-1.67,0.02-2.51,0c-0.33-0.01-0.5,0.07-0.6,0.43
	c-0.18,0.59-0.41,1.17-0.69,1.72c-0.2,0.38-0.11,0.59,0.18,0.85c0.55,0.5,1.07,1.03,1.6,1.55c1.1,1.09,1.13,2.45,0.05,3.54
	c-1.28,1.29-2.56,2.58-3.86,3.85c-1.04,1.03-2.4,1.03-3.44,0.01c-0.6-0.58-1.19-1.17-1.77-1.78c-0.22-0.23-0.38-0.28-0.67-0.11
	c-0.37,0.22-0.77,0.38-1.16,0.55c-1.05,0.43-1.06,0.42-1.05,1.59c0,0.62,0.03,1.24,0.01,1.86c-0.05,1.24-0.95,2.19-2.19,2.22
	c-1.98,0.04-3.97,0.04-5.95,0c-1.26-0.03-2.17-1-2.21-2.28c-0.03-0.84-0.03-1.67,0-2.51c0.02-0.44-0.14-0.62-0.55-0.74
	c-0.57-0.17-1.12-0.41-1.65-0.68c-0.32-0.16-0.5-0.11-0.73,0.14c-0.55,0.6-1.12,1.18-1.7,1.75c-1,0.99-2.39,1.01-3.4,0.03
	c-1.35-1.32-2.68-2.66-4.01-4.01c-0.91-0.92-0.92-2.28-0.04-3.23c0.6-0.65,1.24-1.26,1.88-1.88c0.24-0.23,0.29-0.41,0.12-0.73
	c-0.29-0.55-0.53-1.12-0.73-1.7c-0.14-0.39-0.34-0.5-0.74-0.48c-0.79,0.04-1.58,0.05-2.37,0.04c-1.39-0.03-2.35-0.96-2.38-2.34
	c-0.03-1.89-0.03-3.78-0.01-5.66c0.02-1.39,0.95-2.31,2.36-2.35c0.76-0.02,1.53-0.05,2.29,0c0.56,0.04,0.84-0.14,0.92-0.7
	c0.03-0.23,0.15-0.45,0.24-0.67c0.53-1.31,0.53-1.31-0.51-2.32c-0.36-0.35-0.73-0.69-1.07-1.06c-0.87-0.92-0.91-2.27-0.04-3.17
	c1.36-1.41,2.74-2.8,4.15-4.16c0.94-0.9,2.29-0.86,3.23,0.03c0.61,0.57,1.2,1.17,1.77,1.78c0.27,0.29,0.48,0.37,0.85,0.16
	c0.5-0.28,1.02-0.53,1.57-0.68c0.48-0.13,0.56-0.38,0.54-0.82c-0.04-0.76-0.03-1.53-0.02-2.29c0.01-1.37,0.96-2.37,2.33-2.39
	c1.91-0.03,3.82-0.03,5.74,0c1.34,0.02,2.26,0.99,2.28,2.34c0.01,0.86,0.02,1.72,0,2.58c-0.01,0.31,0.09,0.47,0.41,0.55
	c0.41,0.11,0.82,0.27,1.21,0.43c1.05,0.44,1.05,0.45,1.87-0.39c0.42-0.43,0.82-0.87,1.25-1.28c0.92-0.87,2.27-0.93,3.18-0.06
	c1.45,1.39,2.87,2.81,4.25,4.26c0.84,0.88,0.76,2.21-0.1,3.12c-0.61,0.64-1.23,1.27-1.87,1.88c-0.23,0.22-0.27,0.39-0.1,0.67
	c0.22,0.37,0.38,0.77,0.54,1.17c0.43,1.06,0.42,1.06,1.61,1.04c0.55-0.01,1.1-0.04,1.65-0.03c1.48,0.03,2.41,0.97,2.43,2.43
	C56.75,59.87,56.74,60.78,56.74,61.69"/>
<path class="st5" d="M41.1,47.7l0.02,0.01c-0.27-0.27-0.63-0.32-0.96-0.43c-1.12-0.4-1.44-0.84-1.44-2.01
	c0-0.81-0.02-1.63,0.01-2.44c0.02-0.65-0.26-0.89-0.9-0.88c-1.72,0.02-3.44,0.02-5.16,0c-0.61-0.01-0.87,0.25-0.86,0.85
	c0.02,0.91,0.01,1.82,0,2.72c-0.01,0.87-0.38,1.38-1.2,1.66c-0.77,0.27-1.51,0.57-2.24,0.93c-0.83,0.41-1.48,0.3-2.15-0.36
	c-0.61-0.6-1.24-1.2-1.82-1.83c-0.47-0.51-0.85-0.46-1.31,0.02c-1.18,1.22-2.39,2.41-3.6,3.6c-0.46,0.45-0.47,0.83,0,1.27
	c0.64,0.61,1.26,1.24,1.88,1.87c0.63,0.64,0.71,1.26,0.34,2.09c-0.31,0.7-0.62,1.39-0.89,2.11c-0.39,1.03-0.8,1.35-1.91,1.37
	c-0.84,0.01-1.67,0.02-2.51,0c-0.65-0.02-0.9,0.28-0.9,0.91c0.01,1.72,0.01,3.44,0,5.16c0,0.6,0.27,0.88,0.87,0.87
	c0.91-0.01,1.82-0.01,2.72,0c0.88,0.01,1.36,0.37,1.67,1.19c0.24,0.62,0.49,1.24,0.74,1.86c0.66,1.41,0.59,1.76-0.53,2.89
	c-0.51,0.51-1.01,1.02-1.52,1.52c-0.41,0.39-0.42,0.77-0.02,1.17c1.25,1.25,2.5,2.5,3.75,3.75c0.4,0.41,0.77,0.39,1.16-0.02
	c0.61-0.64,1.24-1.26,1.88-1.87c0.67-0.66,1.32-0.77,2.15-0.37c0.71,0.34,1.43,0.65,2.18,0.91c0.9,0.32,1.26,0.81,1.27,1.76
	c0.01,0.88,0.01,1.77,0,2.65c-0.01,0.56,0.21,0.84,0.8,0.84c1.77-0.01,3.54-0.01,5.3,0c0.58,0,0.82-0.26,0.82-0.83
	c-0.01-0.88-0.01-1.77,0-2.65c0.02-0.96,0.37-1.45,1.26-1.78c0.77-0.28,1.51-0.59,2.24-0.94c0.75-0.36,1.44-0.25,2.04,0.33
	c0.63,0.62,1.26,1.24,1.87,1.88c0.43,0.45,0.81,0.51,1.27,0.04c1.22-1.25,2.46-2.48,3.7-3.7c0.41-0.41,0.41-0.76,0-1.16
	c-0.67-0.65-1.33-1.31-1.97-1.98c-0.56-0.58-0.68-1.24-0.32-1.97c0.37-0.75,0.69-1.52,0.96-2.31c0.29-0.86,0.8-1.2,1.73-1.21
	c0.84-0.01,1.67,0,2.51,0c0.84-0.01,1.02-0.17,1.02-0.99c0.01-1.67-0.01-3.35,0.01-5.02c0.01-0.69-0.28-0.94-0.95-0.91
	c-0.84,0.03-1.67,0.02-2.51,0c-1.03-0.02-1.49-0.39-1.86-1.37c-0.25-0.67-0.52-1.33-0.82-1.98c-0.47-1.03-0.4-1.55,0.42-2.38
	c0.57-0.58,1.13-1.17,1.73-1.72c0.47-0.44,0.48-0.81,0.02-1.27c-1.23-1.2-2.45-2.42-3.65-3.65c-0.46-0.47-0.84-0.42-1.27,0.03
	c-0.58,0.61-1.18,1.19-1.77,1.78c-0.76,0.75-1.39,0.84-2.33,0.36c-0.21-0.11-0.43-0.2-0.64-0.3C41.3,47.74,41.2,47.72,41.1,47.7z
	 M56.74,61.69c0,0.93,0.01,1.86,0,2.8c-0.02,1.41-0.96,2.37-2.39,2.41c-0.84,0.02-1.67,0.02-2.51,0c-0.33-0.01-0.5,0.07-0.6,0.43
	c-0.18,0.59-0.41,1.17-0.69,1.72c-0.2,0.38-0.11,0.59,0.18,0.85c0.55,0.5,1.07,1.03,1.6,1.55c1.1,1.09,1.13,2.45,0.05,3.54
	c-1.28,1.29-2.56,2.58-3.86,3.85c-1.04,1.03-2.4,1.03-3.44,0.01c-0.6-0.58-1.19-1.17-1.77-1.78c-0.22-0.23-0.38-0.28-0.67-0.11
	c-0.37,0.22-0.77,0.38-1.16,0.55c-1.05,0.43-1.06,0.42-1.05,1.59c0,0.62,0.03,1.24,0.01,1.86c-0.05,1.24-0.95,2.19-2.19,2.22
	c-1.98,0.04-3.97,0.04-5.95,0c-1.26-0.03-2.17-1-2.21-2.28c-0.03-0.84-0.03-1.67,0-2.51c0.02-0.44-0.14-0.62-0.55-0.74
	c-0.57-0.17-1.12-0.41-1.65-0.68c-0.32-0.16-0.5-0.11-0.73,0.14c-0.55,0.6-1.12,1.18-1.7,1.75c-1,0.99-2.39,1.01-3.4,0.03
	c-1.35-1.32-2.68-2.66-4.01-4.01c-0.91-0.92-0.92-2.28-0.04-3.23c0.6-0.65,1.24-1.26,1.88-1.88c0.24-0.23,0.29-0.41,0.12-0.73
	c-0.29-0.55-0.53-1.12-0.73-1.7c-0.14-0.39-0.34-0.5-0.74-0.48c-0.79,0.04-1.58,0.05-2.37,0.04c-1.39-0.03-2.35-0.96-2.38-2.34
	c-0.03-1.89-0.03-3.78-0.01-5.66c0.02-1.39,0.95-2.31,2.36-2.35c0.76-0.02,1.53-0.05,2.29,0c0.56,0.04,0.84-0.14,0.92-0.7
	c0.03-0.23,0.15-0.45,0.24-0.67c0.53-1.31,0.53-1.31-0.51-2.32c-0.36-0.35-0.73-0.69-1.07-1.06c-0.87-0.92-0.91-2.27-0.04-3.17
	c1.36-1.41,2.74-2.8,4.15-4.16c0.94-0.9,2.29-0.86,3.23,0.03c0.61,0.57,1.2,1.17,1.77,1.78c0.27,0.29,0.48,0.37,0.85,0.16
	c0.5-0.28,1.02-0.53,1.57-0.68c0.48-0.13,0.56-0.38,0.54-0.82c-0.04-0.76-0.03-1.53-0.02-2.29c0.01-1.37,0.96-2.37,2.33-2.39
	c1.91-0.03,3.82-0.03,5.74,0c1.34,0.02,2.26,0.99,2.28,2.34c0.01,0.86,0.02,1.72,0,2.58c-0.01,0.31,0.09,0.47,0.41,0.55
	c0.41,0.11,0.82,0.27,1.21,0.43c1.05,0.44,1.05,0.45,1.87-0.39c0.42-0.43,0.82-0.87,1.25-1.28c0.92-0.87,2.27-0.93,3.18-0.06
	c1.45,1.39,2.87,2.81,4.25,4.26c0.84,0.88,0.76,2.21-0.1,3.12c-0.61,0.64-1.23,1.27-1.87,1.88c-0.23,0.22-0.27,0.39-0.1,0.67
	c0.22,0.37,0.38,0.77,0.54,1.17c0.43,1.06,0.42,1.06,1.61,1.04c0.55-0.01,1.1-0.04,1.65-0.03c1.48,0.03,2.41,0.97,2.43,2.43
	C56.75,59.87,56.74,60.78,56.74,61.69z"/>
<path class="st0" d="M82.15,25.67c-0.27-0.39-0.73-0.4-1.12-0.55c-0.97-0.36-1.32-0.83-1.33-1.87c-0.01-0.86-0.02-1.72,0-2.58
	c0.01-0.57-0.23-0.85-0.8-0.85c-1.77,0-3.54,0-5.3,0c-0.56,0-0.83,0.25-0.82,0.83c0.02,0.88,0.01,1.77,0,2.65
	c-0.01,0.95-0.36,1.47-1.25,1.78c-0.77,0.27-1.51,0.58-2.24,0.94c-0.8,0.39-1.44,0.28-2.09-0.35c-0.65-0.63-1.29-1.27-1.93-1.92
	c-0.37-0.38-0.73-0.41-1.11-0.03c-1.27,1.27-2.53,2.53-3.8,3.8c-0.38,0.38-0.38,0.73,0.01,1.11c0.65,0.63,1.29,1.28,1.92,1.93
	c0.65,0.67,0.76,1.26,0.37,2.08c-0.36,0.76-0.68,1.52-0.95,2.31c-0.27,0.81-0.81,1.17-1.68,1.18c-0.91,0.01-1.82,0.01-2.72,0
	c-0.56-0.01-0.85,0.23-0.85,0.81c0,1.77,0.01,3.54,0,5.3c0,0.58,0.27,0.83,0.83,0.82c0.88-0.01,1.77-0.01,2.65,0
	c1,0.01,1.48,0.37,1.81,1.3c0.24,0.67,0.43,1.36,0.86,1.94c0.5,1.25,0.42,1.66-0.53,2.61c-0.54,0.54-1.06,1.1-1.63,1.61
	c-0.47,0.43-0.42,0.79,0,1.21c1.22,1.21,2.44,2.42,3.65,3.65c0.44,0.45,0.81,0.4,1.21-0.02c0.6-0.62,1.21-1.23,1.82-1.83
	c0.66-0.65,1.3-0.78,2.15-0.4c0.76,0.34,1.52,0.68,2.31,0.96c0.83,0.29,1.21,0.85,1.22,1.74c0.01,0.91,0.01,1.82,0,2.73
	c0,0.5,0.2,0.75,0.72,0.75c1.79-0.01,3.58-0.01,5.38,0c0.53,0,0.73-0.24,0.73-0.74c-0.01-0.93,0-1.86,0-2.8
	c0.01-0.81,0.4-1.38,1.14-1.65c0.81-0.3,1.6-0.63,2.38-0.99c0.8-0.37,1.53-0.26,2.16,0.39c0.63,0.65,1.28,1.28,1.92,1.93
	c0.36,0.36,0.7,0.35,1.05,0c1.25-1.25,2.5-2.5,3.75-3.75c0.41-0.4,0.39-0.76-0.03-1.16c-0.64-0.61-1.26-1.24-1.88-1.87
	c-0.67-0.69-0.77-1.28-0.36-2.15c0.34-0.74,0.66-1.48,0.92-2.25c0.29-0.84,0.84-1.22,1.72-1.23c0.93-0.02,1.86-0.03,2.79-0.04
	c0.55,0,0.76-0.27,0.75-0.81c-0.01-1.72-0.02-3.44,0-5.16c0.01-0.66-0.3-0.89-0.92-0.88c-0.86,0.02-1.72,0.01-2.58,0.01
	c-0.93-0.01-1.48-0.4-1.78-1.26c-0.26-0.77-0.56-1.52-0.93-2.25c-0.4-0.81-0.29-1.44,0.34-2.09c0.62-0.63,1.24-1.26,1.88-1.87
	c0.43-0.41,0.48-0.78,0.04-1.22c-1.24-1.22-2.47-2.46-3.7-3.7c-0.38-0.38-0.72-0.39-1.1,0c-0.63,0.65-1.29,1.28-1.93,1.92
	c-0.48,0.48-1.05,0.69-1.7,0.51C83.11,26.08,82.63,25.85,82.15,25.67 M76.19,61.06c-0.93,0-1.86,0.01-2.8,0
	c-1.33-0.02-2.29-0.98-2.32-2.31c-0.02-0.86-0.02-1.72,0-2.58c0.01-0.34-0.08-0.5-0.43-0.6c-0.59-0.17-1.18-0.41-1.72-0.69
	c-0.38-0.2-0.59-0.11-0.85,0.17c-0.52,0.56-1.06,1.11-1.6,1.65c-1.03,1.03-2.4,1.07-3.44,0.06c-1.34-1.3-2.66-2.62-3.95-3.95
	c-1-1.03-0.97-2.35,0.02-3.39c0.58-0.6,1.17-1.19,1.78-1.77c0.24-0.23,0.28-0.41,0.11-0.73c-0.28-0.52-0.53-1.07-0.7-1.64
	c-0.14-0.46-0.39-0.57-0.83-0.54c-0.71,0.04-1.43,0.03-2.15,0.05c-1.52,0.02-2.53-0.95-2.55-2.47c-0.02-1.82-0.02-3.63,0-5.45
	c0.01-1.48,1-2.44,2.5-2.46c0.76-0.01,1.53-0.04,2.29,0.01c0.48,0.03,0.67-0.15,0.78-0.59c0.1-0.41,0.23-0.85,0.46-1.2
	c0.41-0.62,0.3-1.04-0.27-1.48c-0.52-0.41-0.98-0.91-1.44-1.39c-0.96-0.99-0.99-2.35-0.03-3.33c1.32-1.35,2.65-2.69,4-4.01
	c0.96-0.94,2.37-0.93,3.35,0.01c0.62,0.59,1.23,1.2,1.82,1.82c0.22,0.23,0.39,0.27,0.67,0.1c0.3-0.19,0.64-0.32,0.97-0.46
	c1.23-0.52,1.23-0.52,1.22-1.83c0-0.57-0.03-1.15,0-1.72c0.05-1.17,0.89-2.14,2.06-2.18c2.05-0.07,4.11-0.07,6.16-0.01
	c1.21,0.04,2.07,1,2.11,2.21c0.03,0.86,0.03,1.72,0,2.58c-0.01,0.39,0.08,0.59,0.49,0.71c0.61,0.18,1.21,0.44,1.79,0.72
	c0.27,0.13,0.41,0.1,0.61-0.11c0.57-0.61,1.16-1.21,1.75-1.79c1.03-1,2.42-1,3.45,0.02c1.29,1.28,2.58,2.56,3.85,3.85
	c1.05,1.07,1.04,2.41-0.02,3.49c-0.57,0.58-1.14,1.16-1.73,1.72c-0.25,0.24-0.28,0.42-0.1,0.72c0.26,0.46,0.5,0.94,0.63,1.44
	c0.16,0.64,0.51,0.8,1.12,0.74c0.66-0.06,1.34-0.04,2.01-0.04c1.45,0.01,2.45,0.96,2.47,2.41c0.03,1.86,0.03,3.73,0,5.59
	c-0.02,1.39-0.96,2.32-2.36,2.37c-0.83,0.03-1.67,0.03-2.51,0c-0.38-0.01-0.56,0.11-0.66,0.46c-0.11,0.39-0.26,0.77-0.41,1.14
	c-0.44,1.05-0.45,1.04,0.4,1.86c0.41,0.4,0.83,0.79,1.23,1.2c0.93,0.96,0.99,2.33,0.07,3.29c-1.34,1.39-2.71,2.76-4.11,4.1
	c-0.96,0.93-2.3,0.88-3.28-0.06c-0.6-0.58-1.2-1.16-1.77-1.78c-0.26-0.28-0.47-0.32-0.79-0.12c-0.28,0.18-0.6,0.3-0.9,0.43
	c-1.24,0.53-1.24,0.52-1.22,1.91c0.01,0.53,0.02,1.05,0.01,1.58c-0.04,1.29-1,2.25-2.29,2.27C78.15,61.08,77.17,61.06,76.19,61.06"
	/>
<path class="st5" d="M82.15,25.67c-0.27-0.39-0.73-0.4-1.12-0.55c-0.97-0.36-1.32-0.83-1.33-1.87c-0.01-0.86-0.02-1.72,0-2.58
	c0.01-0.57-0.23-0.85-0.8-0.85c-1.77,0-3.54,0-5.3,0c-0.56,0-0.83,0.25-0.82,0.83c0.02,0.88,0.01,1.77,0,2.65
	c-0.01,0.95-0.36,1.47-1.25,1.78c-0.77,0.27-1.51,0.58-2.24,0.94c-0.8,0.39-1.44,0.28-2.09-0.35c-0.65-0.63-1.29-1.27-1.93-1.92
	c-0.37-0.38-0.73-0.41-1.11-0.03c-1.27,1.27-2.53,2.53-3.8,3.8c-0.38,0.38-0.38,0.73,0.01,1.11c0.65,0.63,1.29,1.28,1.92,1.93
	c0.65,0.67,0.76,1.26,0.37,2.08c-0.36,0.76-0.68,1.52-0.95,2.31c-0.27,0.81-0.81,1.17-1.68,1.18c-0.91,0.01-1.82,0.01-2.72,0
	c-0.56-0.01-0.85,0.23-0.85,0.81c0,1.77,0.01,3.54,0,5.3c0,0.58,0.27,0.83,0.83,0.82c0.88-0.01,1.77-0.01,2.65,0
	c1,0.01,1.48,0.37,1.81,1.3c0.24,0.67,0.43,1.36,0.86,1.94c0.5,1.25,0.42,1.66-0.53,2.61c-0.54,0.54-1.06,1.1-1.63,1.61
	c-0.47,0.43-0.42,0.79,0,1.21c1.22,1.21,2.44,2.42,3.65,3.65c0.44,0.45,0.81,0.4,1.21-0.02c0.6-0.62,1.21-1.23,1.82-1.83
	c0.66-0.65,1.3-0.78,2.15-0.4c0.76,0.34,1.52,0.68,2.31,0.96c0.83,0.29,1.21,0.85,1.22,1.74c0.01,0.91,0.01,1.82,0,2.73
	c0,0.5,0.2,0.75,0.72,0.75c1.79-0.01,3.58-0.01,5.38,0c0.53,0,0.73-0.24,0.73-0.74c-0.01-0.93,0-1.86,0-2.8
	c0.01-0.81,0.4-1.38,1.14-1.65c0.81-0.3,1.6-0.63,2.38-0.99c0.8-0.37,1.53-0.26,2.16,0.39c0.63,0.65,1.28,1.28,1.92,1.93
	c0.36,0.36,0.7,0.35,1.05,0c1.25-1.25,2.5-2.5,3.75-3.75c0.41-0.4,0.39-0.76-0.03-1.16c-0.64-0.61-1.26-1.24-1.88-1.87
	c-0.67-0.69-0.77-1.28-0.36-2.15c0.34-0.74,0.66-1.48,0.92-2.25c0.29-0.84,0.84-1.22,1.72-1.23c0.93-0.02,1.86-0.03,2.79-0.04
	c0.55,0,0.76-0.27,0.75-0.81c-0.01-1.72-0.02-3.44,0-5.16c0.01-0.66-0.3-0.89-0.92-0.88c-0.86,0.02-1.72,0.01-2.58,0.01
	c-0.93-0.01-1.48-0.4-1.78-1.26c-0.26-0.77-0.56-1.52-0.93-2.25c-0.4-0.81-0.29-1.44,0.34-2.09c0.62-0.63,1.24-1.26,1.88-1.87
	c0.43-0.41,0.48-0.78,0.04-1.22c-1.24-1.22-2.47-2.46-3.7-3.7c-0.38-0.38-0.72-0.39-1.1,0c-0.63,0.65-1.29,1.28-1.93,1.92
	c-0.48,0.48-1.05,0.69-1.7,0.51C83.11,26.08,82.63,25.85,82.15,25.67z M76.19,61.06c-0.93,0-1.86,0.01-2.8,0
	c-1.33-0.02-2.29-0.98-2.32-2.31c-0.02-0.86-0.02-1.72,0-2.58c0.01-0.34-0.08-0.5-0.43-0.6c-0.59-0.17-1.18-0.41-1.72-0.69
	c-0.38-0.2-0.59-0.11-0.85,0.17c-0.52,0.56-1.06,1.11-1.6,1.65c-1.03,1.03-2.4,1.07-3.44,0.06c-1.34-1.3-2.66-2.62-3.95-3.95
	c-1-1.03-0.97-2.35,0.02-3.39c0.58-0.6,1.17-1.19,1.78-1.77c0.24-0.23,0.28-0.41,0.11-0.73c-0.28-0.52-0.53-1.07-0.7-1.64
	c-0.14-0.46-0.39-0.57-0.83-0.54c-0.71,0.04-1.43,0.03-2.15,0.05c-1.52,0.02-2.53-0.95-2.55-2.47c-0.02-1.82-0.02-3.63,0-5.45
	c0.01-1.48,1-2.44,2.5-2.46c0.76-0.01,1.53-0.04,2.29,0.01c0.48,0.03,0.67-0.15,0.78-0.59c0.1-0.41,0.23-0.85,0.46-1.2
	c0.41-0.62,0.3-1.04-0.27-1.48c-0.52-0.41-0.98-0.91-1.44-1.39c-0.96-0.99-0.99-2.35-0.03-3.33c1.32-1.35,2.65-2.69,4-4.01
	c0.96-0.94,2.37-0.93,3.35,0.01c0.62,0.59,1.23,1.2,1.82,1.82c0.22,0.23,0.39,0.27,0.67,0.1c0.3-0.19,0.64-0.32,0.97-0.46
	c1.23-0.52,1.23-0.52,1.22-1.83c0-0.57-0.03-1.15,0-1.72c0.05-1.17,0.89-2.14,2.06-2.18c2.05-0.07,4.11-0.07,6.16-0.01
	c1.21,0.04,2.07,1,2.11,2.21c0.03,0.86,0.03,1.72,0,2.58c-0.01,0.39,0.08,0.59,0.49,0.71c0.61,0.18,1.21,0.44,1.79,0.72
	c0.27,0.13,0.41,0.1,0.61-0.11c0.57-0.61,1.16-1.21,1.75-1.79c1.03-1,2.42-1,3.45,0.02c1.29,1.28,2.58,2.56,3.85,3.85
	c1.05,1.07,1.04,2.41-0.02,3.49c-0.57,0.58-1.14,1.16-1.73,1.72c-0.25,0.24-0.28,0.42-0.1,0.72c0.26,0.46,0.5,0.94,0.63,1.44
	c0.16,0.64,0.51,0.8,1.12,0.74c0.66-0.06,1.34-0.04,2.01-0.04c1.45,0.01,2.45,0.96,2.47,2.41c0.03,1.86,0.03,3.73,0,5.59
	c-0.02,1.39-0.96,2.32-2.36,2.37c-0.83,0.03-1.67,0.03-2.51,0c-0.38-0.01-0.56,0.11-0.66,0.46c-0.11,0.39-0.26,0.77-0.41,1.14
	c-0.44,1.05-0.45,1.04,0.4,1.86c0.41,0.4,0.83,0.79,1.23,1.2c0.93,0.96,0.99,2.33,0.07,3.29c-1.34,1.39-2.71,2.76-4.11,4.1
	c-0.96,0.93-2.3,0.88-3.28-0.06c-0.6-0.58-1.2-1.16-1.77-1.78c-0.26-0.28-0.47-0.32-0.79-0.12c-0.28,0.18-0.6,0.3-0.9,0.43
	c-1.24,0.53-1.24,0.52-1.22,1.91c0.01,0.53,0.02,1.05,0.01,1.58c-0.04,1.29-1,2.25-2.29,2.27C78.15,61.08,77.17,61.06,76.19,61.06z"
	/>
<path class="st0" d="M42.44,19.55c-5.76,0.03-10.94,1.79-15.51,5.28c-4.22,3.23-7.1,7.43-8.71,12.49c-0.13,0.42-0.25,0.83,0.02,1.24
	c0.26,0.4,0.64,0.57,1.11,0.5c0.53-0.08,0.79-0.43,0.95-0.94c2.02-6.36,6.02-11.05,11.99-14c4.15-2.05,8.55-2.77,13.16-2.14
	c0.49,0.07,0.81,0.29,0.87,0.79c0.07,0.51-0.22,0.81-0.67,0.97c-0.4,0.14-0.82,0.26-1.22,0.4c-0.78,0.27-1.09,0.79-0.88,1.45
	c0.2,0.61,0.78,0.87,1.52,0.63c2.7-0.86,5.41-1.72,8.1-2.6c1.06-0.35,1.25-1.25,0.44-2.02c-0.64-0.61-1.31-1.19-1.97-1.78
	c-1.46-1.34-2.92-2.69-4.4-4.01c-0.56-0.5-1.22-0.46-1.65,0.05c-0.4,0.47-0.35,1.11,0.15,1.6c0.22,0.22,0.46,0.42,0.7,0.61
	c0.39,0.33,0.68,0.69,0.43,1.23c-0.24,0.51-0.68,0.52-1.16,0.46C44.64,19.62,43.54,19.55,42.44,19.55 M43.88,17.87
	c-0.28-0.79-0.34-1.49-0.11-2.2c0.62-1.89,3-2.59,4.5-1.27c2.28,2,4.54,4.04,6.74,6.12c1.56,1.47,0.96,4.01-1.09,4.69
	c-2.76,0.93-5.53,1.8-8.3,2.69c-1.23,0.4-2.34,0.16-3.19-0.83c-0.84-0.99-0.9-2.12-0.3-3.27c0.04-0.08,0.07-0.17,0.11-0.29
	c-4.19,0.07-8,1.21-11.46,3.47c-4.33,2.82-7.25,6.71-8.8,11.64c-0.51,1.61-1.9,2.49-3.39,2.15c-1.71-0.39-2.63-2.02-2.06-3.77
	c3.17-9.66,9.72-15.76,19.5-18.41C38.57,17.9,41.16,17.73,43.88,17.87"/>
<path class="st5" d="M42.44,19.55c-5.76,0.03-10.94,1.79-15.51,5.28c-4.22,3.23-7.1,7.43-8.71,12.49c-0.13,0.42-0.25,0.83,0.02,1.24
	c0.26,0.4,0.64,0.57,1.11,0.5c0.53-0.08,0.79-0.43,0.95-0.94c2.02-6.36,6.02-11.05,11.99-14c4.15-2.05,8.55-2.77,13.16-2.14
	c0.49,0.07,0.81,0.29,0.87,0.79c0.07,0.51-0.22,0.81-0.67,0.97c-0.4,0.14-0.82,0.26-1.22,0.4c-0.78,0.27-1.09,0.79-0.88,1.45
	c0.2,0.61,0.78,0.87,1.52,0.63c2.7-0.86,5.41-1.72,8.1-2.6c1.06-0.35,1.25-1.25,0.44-2.02c-0.64-0.61-1.31-1.19-1.97-1.78
	c-1.46-1.34-2.92-2.69-4.4-4.01c-0.56-0.5-1.22-0.46-1.65,0.05c-0.4,0.47-0.35,1.11,0.15,1.6c0.22,0.22,0.46,0.42,0.7,0.61
	c0.39,0.33,0.68,0.69,0.43,1.23c-0.24,0.51-0.68,0.52-1.16,0.46C44.64,19.62,43.54,19.55,42.44,19.55z M43.88,17.87
	c-0.28-0.79-0.34-1.49-0.11-2.2c0.62-1.89,3-2.59,4.5-1.27c2.28,2,4.54,4.04,6.74,6.12c1.56,1.47,0.96,4.01-1.09,4.69
	c-2.76,0.93-5.53,1.8-8.3,2.69c-1.23,0.4-2.34,0.16-3.19-0.83c-0.84-0.99-0.9-2.12-0.3-3.27c0.04-0.08,0.07-0.17,0.11-0.29
	c-4.19,0.07-8,1.21-11.46,3.47c-4.33,2.82-7.25,6.71-8.8,11.64c-0.51,1.61-1.9,2.49-3.39,2.15c-1.71-0.39-2.63-2.02-2.06-3.77
	c3.17-9.66,9.72-15.76,19.5-18.41C38.57,17.9,41.16,17.73,43.88,17.87z"/>
<path class="st0" d="M49.08,112.08c1.24-0.01,2.48-0.11,3.71-0.28c0.77-0.11,1.16-0.6,1.07-1.33c-0.08-0.63-0.65-0.99-1.39-0.88
	c-2.65,0.39-5.28,0.3-7.91-0.2c-3.21-0.61-6.11-1.99-8.82-3.74c-1.07-0.69-2.02-1.63-2.94-2.56c-2.6-2.63-4.48-5.69-5.64-9.19
	c-0.18-0.54-0.18-0.99,0.36-1.3c0.54-0.31,0.9-0.01,1.24,0.36c0.33,0.35,0.64,0.72,1,1.02c0.63,0.54,1.56,0.2,1.73-0.59
	c0.11-0.51-0.13-0.86-0.45-1.21c-1.86-1.99-3.71-3.99-5.56-5.99c-0.38-0.41-0.76-0.74-1.36-0.59c-0.56,0.14-0.76,0.6-0.91,1.1
	c-0.79,2.6-1.58,5.21-2.37,7.81c-0.06,0.18-0.12,0.37-0.13,0.55c-0.03,0.56,0.21,0.99,0.77,1.13c0.57,0.15,1.05-0.03,1.32-0.58
	c0.14-0.3,0.23-0.63,0.31-0.95c0.13-0.54,0.3-1.05,0.96-1.07c0.67-0.03,0.83,0.5,1,1.02C28.45,104.96,38.25,112.09,49.08,112.08
	 M29.96,96.12c2.97,5.95,7.74,9.7,14.14,11.39c2.69,0.71,5.43,0.78,8.18,0.38c1.62-0.24,3.09,0.78,3.31,2.32
	c0.24,1.65-0.78,3.06-2.43,3.3c-2.76,0.41-5.53,0.46-8.28-0.05c-9.71-1.78-16.6-7.2-20.68-16.19c-0.04-0.08-0.07-0.16-0.15-0.33
	c-0.63,0.65-1.35,1.03-2.23,1.03c-1.88,0-3.27-1.75-2.75-3.58c0.84-2.91,1.71-5.81,2.66-8.69c0.64-1.97,3.17-2.57,4.62-1.09
	c2.14,2.19,4.23,4.42,6.26,6.7c1.49,1.67,0.47,4.25-1.74,4.61c-0.26,0.04-0.52,0.05-0.78,0.07c-0.04-0.02-0.09-0.07-0.11-0.06
	C29.9,95.99,29.93,96.06,29.96,96.12"/>
<path class="st5" d="M49.08,112.08c1.24-0.01,2.48-0.11,3.71-0.28c0.77-0.11,1.16-0.6,1.07-1.33c-0.08-0.63-0.65-0.99-1.39-0.88
	c-2.65,0.39-5.28,0.3-7.91-0.2c-3.21-0.61-6.11-1.99-8.82-3.74c-1.07-0.69-2.02-1.63-2.94-2.56c-2.6-2.63-4.48-5.69-5.64-9.19
	c-0.18-0.54-0.18-0.99,0.36-1.3c0.54-0.31,0.9-0.01,1.24,0.36c0.33,0.35,0.64,0.72,1,1.02c0.63,0.54,1.56,0.2,1.73-0.59
	c0.11-0.51-0.13-0.86-0.45-1.21c-1.86-1.99-3.71-3.99-5.56-5.99c-0.38-0.41-0.76-0.74-1.36-0.59c-0.56,0.14-0.76,0.6-0.91,1.1
	c-0.79,2.6-1.58,5.21-2.37,7.81c-0.06,0.18-0.12,0.37-0.13,0.55c-0.03,0.56,0.21,0.99,0.77,1.13c0.57,0.15,1.05-0.03,1.32-0.58
	c0.14-0.3,0.23-0.63,0.31-0.95c0.13-0.54,0.3-1.05,0.96-1.07c0.67-0.03,0.83,0.5,1,1.02C28.45,104.96,38.25,112.09,49.08,112.08z
	 M29.96,96.12c2.97,5.95,7.74,9.7,14.14,11.39c2.69,0.71,5.43,0.78,8.18,0.38c1.62-0.24,3.09,0.78,3.31,2.32
	c0.24,1.65-0.78,3.06-2.43,3.3c-2.76,0.41-5.53,0.46-8.28-0.05c-9.71-1.78-16.6-7.2-20.68-16.19c-0.04-0.08-0.07-0.16-0.15-0.33
	c-0.63,0.65-1.35,1.03-2.23,1.03c-1.88,0-3.27-1.75-2.75-3.58c0.84-2.91,1.71-5.81,2.66-8.69c0.64-1.97,3.17-2.57,4.62-1.09
	c2.14,2.19,4.23,4.42,6.26,6.7c1.49,1.67,0.47,4.25-1.74,4.61c-0.26,0.04-0.52,0.05-0.78,0.07c-0.04-0.02-0.09-0.07-0.11-0.06
	C29.9,95.99,29.93,96.06,29.96,96.12z"/>
<path class="st0" d="M111.74,69.05c-0.02-5.56-1.32-10.09-3.93-14.23c-1.41-2.23-3.18-4.15-5.15-5.88c-0.57-0.5-1.23-0.46-1.66,0.02
	c-0.46,0.51-0.39,1.16,0.21,1.7c0.2,0.18,0.41,0.33,0.6,0.5c6.17,5.73,8.61,12.78,7.42,21.09c-0.4,2.79-1.41,5.39-2.83,7.83
	c-0.25,0.43-0.6,0.7-1.12,0.55c-0.53-0.15-0.67-0.57-0.62-1.07c0.04-0.43,0.1-0.85,0.12-1.28c0.04-0.78-0.34-1.27-0.99-1.32
	c-0.65-0.05-1.16,0.38-1.23,1.12c-0.27,2.88-0.52,5.76-0.75,8.64c-0.08,0.98,0.71,1.55,1.6,1.15c2.67-1.21,5.33-2.46,7.98-3.71
	c0.61-0.29,0.81-0.96,0.53-1.51c-0.26-0.52-0.87-0.72-1.48-0.46c-0.4,0.16-0.77,0.38-1.17,0.53c-0.7,0.27-1.37-0.26-1.21-0.97
	c0.06-0.27,0.23-0.52,0.37-0.77C110.62,77.12,111.73,72.97,111.74,69.05 M110.8,80.27c1.47,0.1,2.49,0.76,2.89,2.17
	c0.37,1.31-0.24,2.66-1.48,3.25c-2.71,1.29-5.43,2.57-8.18,3.8c-1.97,0.88-4.09-0.6-3.95-2.77c0.2-2.98,0.49-5.95,0.78-8.92
	c0.12-1.23,0.82-2.1,2.02-2.44c1.21-0.35,2.26-0.01,3.08,0.98c0.06,0.07,0.12,0.14,0.23,0.25c1.28-3.12,1.82-6.31,1.56-9.62
	c-0.48-6.09-3.06-11.11-7.73-15.06c-1.26-1.06-1.39-2.83-0.37-4.04c1.02-1.2,2.79-1.37,4.04-0.3c7.33,6.3,10.5,14.29,9.63,23.9
	c-0.27,2.95-1.12,5.75-2.37,8.44C110.9,80.01,110.86,80.12,110.8,80.27"/>
<path class="st5" d="M111.74,69.05c-0.02-5.56-1.32-10.09-3.93-14.23c-1.41-2.23-3.18-4.15-5.15-5.88c-0.57-0.5-1.23-0.46-1.66,0.02
	c-0.46,0.51-0.39,1.16,0.21,1.7c0.2,0.18,0.41,0.33,0.6,0.5c6.17,5.73,8.61,12.78,7.42,21.09c-0.4,2.79-1.41,5.39-2.83,7.83
	c-0.25,0.43-0.6,0.7-1.12,0.55c-0.53-0.15-0.67-0.57-0.62-1.07c0.04-0.43,0.1-0.85,0.12-1.28c0.04-0.78-0.34-1.27-0.99-1.32
	c-0.65-0.05-1.16,0.38-1.23,1.12c-0.27,2.88-0.52,5.76-0.75,8.64c-0.08,0.98,0.71,1.55,1.6,1.15c2.67-1.21,5.33-2.46,7.98-3.71
	c0.61-0.29,0.81-0.96,0.53-1.51c-0.26-0.52-0.87-0.72-1.48-0.46c-0.4,0.16-0.77,0.38-1.17,0.53c-0.7,0.27-1.37-0.26-1.21-0.97
	c0.06-0.27,0.23-0.52,0.37-0.77C110.62,77.12,111.73,72.97,111.74,69.05z M110.8,80.27c1.47,0.1,2.49,0.76,2.89,2.17
	c0.37,1.31-0.24,2.66-1.48,3.25c-2.71,1.29-5.43,2.57-8.18,3.8c-1.97,0.88-4.09-0.6-3.95-2.77c0.2-2.98,0.49-5.95,0.78-8.92
	c0.12-1.23,0.82-2.1,2.02-2.44c1.21-0.35,2.26-0.01,3.08,0.98c0.06,0.07,0.12,0.14,0.23,0.25c1.28-3.12,1.82-6.31,1.56-9.62
	c-0.48-6.09-3.06-11.11-7.73-15.06c-1.26-1.06-1.39-2.83-0.37-4.04c1.02-1.2,2.79-1.37,4.04-0.3c7.33,6.3,10.5,14.29,9.63,23.9
	c-0.27,2.95-1.12,5.75-2.37,8.44C110.9,80.01,110.86,80.12,110.8,80.27z"/>
<path class="st3" d="M74.03,75.13c-2.68,0-4.8,2.15-4.8,4.85c0,2.63,2.15,4.78,4.8,4.78c2.7,0,4.83-2.12,4.83-4.81
	C78.86,77.28,76.71,75.13,74.03,75.13 M74.29,98.75c0,0.01,0,0.01,0,0.02c1.77,0,3.54,0.02,5.31-0.01c2.04-0.03,3.51-1.51,3.54-3.55
	c0.02-1.03,0.01-2.06,0-3.08c-0.03-3.45-2.82-6.32-6.26-6.4c-1.7-0.04-3.39-0.04-5.09-0.01c-3,0.05-5.57,2.21-6.16,5.14
	c-0.27,1.35-0.12,2.72-0.14,4.08c-0.02,2.36,1.41,3.8,3.77,3.81C70.95,98.76,72.62,98.75,74.29,98.75 M80.09,71.12
	c0.25,0.6,0.69,1.01,1.29,1.26c0.73,0.31,1.38,0.76,2.05,1.18c0.75,0.47,1.41,0.44,2.12-0.1c0.76-0.58,1.52-1.16,2.26-1.76
	c0.52-0.42,0.93-0.38,1.33,0.15c1.12,1.46,2.26,2.91,3.38,4.37c0.49,0.64,0.45,0.92-0.2,1.43c-0.71,0.56-1.44,1.11-2.15,1.67
	c-0.77,0.6-0.96,1.22-0.64,2.14c0.27,0.79,0.49,1.6,0.66,2.42c0.18,0.9,0.66,1.37,1.58,1.51c0.92,0.14,1.85,0.24,2.77,0.35
	c0.8,0.1,1.01,0.36,0.91,1.13c-0.23,1.78-0.45,3.55-0.68,5.33c-0.11,0.89-0.34,1.06-1.23,0.94c-0.87-0.12-1.75-0.24-2.63-0.34
	c-0.99-0.11-1.55,0.18-1.98,1.05c-0.38,0.77-0.81,1.51-1.28,2.24c-0.49,0.76-0.47,1.39,0.08,2.12c0.56,0.75,1.14,1.47,1.71,2.21
	c0.5,0.65,0.47,0.95-0.15,1.44c-1.43,1.12-2.86,2.23-4.3,3.34c-0.66,0.5-0.93,0.47-1.43-0.18c-0.56-0.71-1.11-1.44-1.67-2.15
	c-0.6-0.77-1.23-0.97-2.14-0.67c-0.82,0.27-1.64,0.51-2.49,0.68c-0.84,0.17-1.34,0.68-1.45,1.55c-0.12,0.95-0.24,1.9-0.37,2.84
	c-0.11,0.77-0.31,0.94-1.09,0.85c-1.87-0.23-3.74-0.47-5.62-0.71c-0.56-0.07-0.77-0.41-0.7-0.96c0.13-0.99,0.26-1.99,0.37-2.99
	c0.1-0.86-0.26-1.48-1.04-1.85c-0.78-0.37-1.52-0.8-2.24-1.27c-0.8-0.53-1.39-0.49-2.17,0.1c-0.76,0.58-1.52,1.16-2.27,1.75
	c-0.49,0.38-0.91,0.33-1.29-0.16c-1.14-1.47-2.29-2.94-3.42-4.42c-0.46-0.6-0.41-0.88,0.21-1.37c0.73-0.58,1.48-1.14,2.2-1.72
	c0.74-0.6,0.91-1.19,0.63-2.09c-0.15-0.47-0.39-0.92-0.38-1.44c-0.02-0.6-0.06-1.19-0.09-1.78c-0.09-1.98-0.02-3.97,0.6-5.88
	c0.68-2.12,2-3.87,3.55-5.4C67.51,73.21,73.19,70.58,80.09,71.12"/>
<path class="st2" d="M80.09,71.12c-6.9-0.54-12.58,2.09-17.4,6.82c-1.55,1.53-2.87,3.28-3.55,5.4c-0.62,1.91-0.69,3.89-0.6,5.88
	c0.03,0.59,0.06,1.19,0.09,1.78c-0.19-0.26-0.19-0.59-0.26-0.88c-0.24-1.12-0.67-1.52-1.82-1.66c-0.9-0.11-1.8-0.24-2.7-0.35
	c-0.64-0.08-0.85-0.43-0.77-1.04c0.24-1.82,0.46-3.65,0.69-5.47c0.09-0.74,0.34-0.94,1.11-0.85c0.93,0.11,1.85,0.23,2.77,0.35
	c0.87,0.11,1.48-0.18,1.89-0.96c0.43-0.83,0.88-1.64,1.39-2.42c0.44-0.68,0.39-1.36-0.09-2c-0.6-0.8-1.22-1.59-1.84-2.38
	c-0.37-0.46-0.34-0.86,0.14-1.23c1.51-1.17,3.02-2.34,4.53-3.52c0.44-0.34,0.83-0.29,1.18,0.15c0.59,0.76,1.17,1.51,1.76,2.26
	c0.64,0.82,1.23,1.01,2.19,0.68c0.81-0.28,1.64-0.5,2.48-0.68c0.88-0.2,1.3-0.65,1.43-1.55c0.14-0.95,0.27-1.89,0.37-2.84
	c0.07-0.65,0.35-0.93,1.03-0.84c1.82,0.25,3.65,0.48,5.47,0.69c0.69,0.08,0.94,0.4,0.86,1.1C80.33,68.75,80.06,69.92,80.09,71.12"/>
<path class="st4" d="M30.49,55.06c-0.02,2.57,2.06,4.66,4.62,4.66c2.54,0,4.6-2.05,4.62-4.59c0.02-2.53-2.03-4.63-4.55-4.66
	C32.6,50.44,30.51,52.49,30.49,55.06 M35.21,72.84c0,0.04,0,0.07,0,0.11c1.65,0,3.3,0,4.94,0c2,0,3.45-1.39,3.5-3.39
	c0.02-1,0.03-2.01,0.01-3.01c-0.04-3.26-2.71-5.98-5.97-6.07c-1.6-0.04-3.2-0.05-4.8-0.03c-2.84,0.03-5.3,2.06-5.87,4.85
	c-0.3,1.44-0.18,2.91-0.14,4.36c0.05,1.84,1.46,3.14,3.31,3.17C31.86,72.86,33.53,72.84,35.21,72.84 M41.4,47.76
	c0.21,0.1,0.43,0.2,0.64,0.3c0.94,0.48,1.56,0.39,2.33-0.36c0.6-0.59,1.19-1.17,1.77-1.78c0.43-0.45,0.81-0.5,1.27-0.03
	c1.2,1.23,2.42,2.44,3.65,3.65c0.46,0.45,0.45,0.83-0.02,1.27c-0.59,0.55-1.16,1.14-1.73,1.72c-0.82,0.83-0.89,1.35-0.42,2.38
	c0.3,0.65,0.57,1.31,0.82,1.98c0.36,0.98,0.82,1.34,1.86,1.37c0.84,0.02,1.67,0.03,2.51,0c0.67-0.03,0.96,0.22,0.95,0.91
	c-0.02,1.67,0,3.35-0.01,5.02c0,0.82-0.18,0.99-1.02,0.99c-0.84,0-1.67-0.01-2.51,0c-0.93,0.01-1.43,0.35-1.73,1.21
	c-0.27,0.79-0.59,1.56-0.96,2.31c-0.36,0.73-0.24,1.4,0.32,1.97c0.65,0.67,1.31,1.33,1.97,1.98c0.41,0.4,0.41,0.75,0,1.16
	c-1.24,1.22-2.48,2.46-3.7,3.7c-0.46,0.47-0.85,0.41-1.27-0.04c-0.61-0.64-1.23-1.27-1.87-1.88c-0.6-0.58-1.29-0.7-2.04-0.33
	c-0.73,0.35-1.48,0.67-2.24,0.94c-0.9,0.32-1.25,0.82-1.26,1.78c-0.02,0.88-0.01,1.77,0,2.65c0.01,0.57-0.24,0.83-0.82,0.83
	c-1.77-0.01-3.54-0.01-5.31,0c-0.59,0-0.81-0.28-0.8-0.84c0.02-0.88,0.01-1.77,0-2.65c-0.01-0.95-0.36-1.45-1.27-1.76
	c-0.74-0.26-1.47-0.57-2.18-0.91c-0.83-0.4-1.48-0.29-2.15,0.37c-0.63,0.62-1.26,1.24-1.88,1.87c-0.4,0.41-0.76,0.43-1.16,0.02
	c-1.25-1.25-2.5-2.5-3.75-3.75c-0.4-0.4-0.39-0.78,0.02-1.17c0.52-0.5,1.02-1.01,1.52-1.52c1.12-1.12,1.19-1.48,0.53-2.89
	c0.12-0.12,0.11-0.26,0.08-0.4c-0.39-1.86-0.5-3.73-0.39-5.62c0.1-1.7,0.44-3.34,1.25-4.87c0.94-1.76,2.1-3.36,3.43-4.83
	c3.54-3.92,7.88-5.83,13.22-5.11c0.68,0.09,1.36,0.21,2.04,0.31L41.1,47.7C41.17,47.88,41.28,47.83,41.4,47.76"/>
<path class="st2" d="M41.12,47.71c-0.68-0.1-1.36-0.22-2.04-0.31c-5.34-0.71-9.68,1.19-13.22,5.11c-1.33,1.47-2.49,3.07-3.43,4.83
	c-0.82,1.53-1.16,3.17-1.25,4.88c-0.11,1.89,0,3.76,0.39,5.62c0.03,0.14,0.05,0.29-0.08,0.4c-0.25-0.62-0.5-1.24-0.74-1.86
	c-0.31-0.82-0.8-1.18-1.67-1.19c-0.91-0.01-1.82-0.01-2.72,0c-0.6,0.01-0.87-0.27-0.87-0.87c0.01-1.72,0.01-3.44,0-5.16
	c0-0.63,0.25-0.93,0.9-0.91c0.84,0.02,1.67,0.01,2.51,0c1.11-0.02,1.52-0.34,1.91-1.37c0.27-0.71,0.58-1.41,0.89-2.11
	c0.37-0.83,0.29-1.45-0.34-2.09c-0.62-0.63-1.24-1.26-1.88-1.87c-0.46-0.44-0.46-0.82,0-1.27c1.21-1.19,2.42-2.38,3.6-3.6
	c0.46-0.48,0.84-0.53,1.32-0.02c0.58,0.63,1.21,1.23,1.82,1.83c0.67,0.66,1.31,0.77,2.15,0.36c0.73-0.36,1.48-0.66,2.24-0.93
	c0.82-0.29,1.19-0.8,1.2-1.66c0.01-0.91,0.01-1.82,0-2.72c-0.01-0.61,0.25-0.86,0.86-0.85c1.72,0.02,3.44,0.02,5.16,0
	c0.64-0.01,0.92,0.23,0.9,0.88c-0.03,0.81-0.01,1.62-0.01,2.44c0,1.17,0.33,1.61,1.44,2.01C40.48,47.39,40.85,47.44,41.12,47.71"/>
<path class="st2" d="M41.4,47.76c-0.12,0.08-0.23,0.13-0.3-0.06C41.2,47.72,41.3,47.74,41.4,47.76"/>
<path class="st1" d="M71.45,32.93c0,2.57,2.02,4.66,4.51,4.68c2.69,0.02,4.78-2.01,4.77-4.64c0-2.57-2.07-4.65-4.63-4.65
	C73.55,28.31,71.46,30.37,71.45,32.93 M75.99,38.29c-0.45,0-1.1,0-1.74,0c-3.12-0.02-5.64,1.91-6.26,4.92
	c-0.3,1.47-0.31,3-0.16,4.49c0.17,1.71,1.51,3.01,3.1,3.04c3.46,0.08,6.93,0.14,10.39,0.13c1.91-0.01,3.29-1.49,3.33-3.41
	c0.02-0.79,0.05-1.57,0.08-2.36c0.14-3.26-1.87-5.92-5.04-6.64C78.53,38.19,77.35,38.39,75.99,38.29 M82.15,25.67
	c0.48,0.18,0.96,0.41,1.45,0.54c0.65,0.17,1.22-0.04,1.7-0.51c0.64-0.64,1.3-1.27,1.93-1.92c0.38-0.39,0.72-0.39,1.1,0
	c1.23,1.24,2.46,2.47,3.7,3.7c0.45,0.44,0.39,0.81-0.04,1.22c-0.64,0.61-1.26,1.24-1.88,1.87c-0.63,0.65-0.74,1.28-0.34,2.09
	c0.36,0.73,0.66,1.48,0.93,2.25c0.3,0.87,0.85,1.25,1.78,1.26c0.86,0.01,1.72,0.01,2.58-0.01c0.62-0.01,0.93,0.22,0.92,0.88
	c-0.02,1.72-0.02,3.44,0,5.16c0,0.54-0.2,0.8-0.75,0.81c-0.93,0-1.86,0.02-2.79,0.04c-0.88,0.02-1.44,0.39-1.72,1.23
	c-0.26,0.77-0.58,1.51-0.92,2.25c-0.4,0.87-0.31,1.46,0.36,2.15c0.61,0.64,1.24,1.27,1.88,1.87c0.42,0.4,0.44,0.75,0.03,1.16
	c-1.25,1.25-2.5,2.5-3.75,3.75c-0.36,0.36-0.7,0.36-1.05,0c-0.64-0.65-1.29-1.28-1.92-1.93c-0.63-0.65-1.36-0.75-2.16-0.39
	c-0.78,0.36-1.57,0.69-2.38,0.99c-0.74,0.27-1.14,0.84-1.14,1.65c-0.01,0.93-0.01,1.86,0,2.8c0,0.5-0.2,0.74-0.73,0.74
	c-1.79-0.01-3.58-0.01-5.38,0c-0.52,0-0.73-0.25-0.72-0.75c0.01-0.91,0.01-1.82,0-2.72c-0.01-0.88-0.38-1.44-1.22-1.74
	c-0.79-0.28-1.55-0.62-2.31-0.96c-0.85-0.38-1.49-0.25-2.15,0.4c-0.61,0.61-1.22,1.21-1.82,1.83c-0.41,0.42-0.78,0.47-1.21,0.02
	c-1.2-1.23-2.42-2.44-3.65-3.65c-0.42-0.42-0.47-0.78,0-1.21c0.56-0.52,1.09-1.07,1.63-1.61c0.95-0.95,1.03-1.37,0.53-2.61
	c-0.21-1.24-0.48-2.48-0.61-3.72c-0.17-1.75-0.23-3.5,0.33-5.23c0.66-2.05,1.72-3.84,3.05-5.53c1.35-1.72,2.76-3.34,4.65-4.48
	c2.86-1.72,5.92-2.4,9.24-2.02C80.24,25.42,81.18,25.73,82.15,25.67"/>
<path class="st2" d="M82.15,25.67c-0.97,0.06-1.91-0.25-2.86-0.36c-3.32-0.39-6.38,0.3-9.24,2.02c-1.9,1.14-3.3,2.76-4.65,4.48
	c-1.33,1.69-2.39,3.48-3.05,5.53c-0.56,1.73-0.5,3.48-0.33,5.23c0.12,1.25,0.4,2.48,0.61,3.72c-0.44-0.58-0.62-1.27-0.86-1.94
	c-0.33-0.93-0.81-1.29-1.81-1.3c-0.88-0.01-1.77-0.01-2.65,0c-0.56,0-0.83-0.25-0.83-0.82c0.01-1.77,0.01-3.54,0-5.3
	c0-0.58,0.29-0.81,0.85-0.81c0.91,0.01,1.82,0.01,2.72,0c0.87-0.01,1.4-0.37,1.68-1.18c0.27-0.79,0.59-1.56,0.95-2.31
	c0.39-0.82,0.28-1.42-0.37-2.08c-0.63-0.65-1.27-1.29-1.92-1.93c-0.39-0.38-0.39-0.73-0.01-1.11c1.27-1.26,2.54-2.53,3.8-3.8
	c0.38-0.38,0.74-0.35,1.11,0.03c0.63,0.65,1.28,1.29,1.93,1.92c0.65,0.63,1.28,0.74,2.09,0.35c0.73-0.36,1.48-0.67,2.24-0.94
	c0.88-0.31,1.24-0.82,1.25-1.78c0.01-0.88,0.01-1.77,0-2.65c-0.01-0.58,0.26-0.83,0.82-0.83c1.77,0,3.54,0,5.3,0
	c0.57,0,0.81,0.28,0.8,0.85c-0.02,0.86-0.01,1.72,0,2.58c0.01,1.04,0.36,1.51,1.33,1.87C81.42,25.26,81.88,25.28,82.15,25.67"/>
<path class="st2" d="M42.44,19.55c1.1,0,2.2,0.07,3.29,0.21c0.48,0.07,0.92,0.05,1.16-0.46c0.25-0.54-0.04-0.91-0.43-1.23
	c-0.24-0.2-0.48-0.4-0.7-0.61c-0.5-0.5-0.55-1.13-0.15-1.6c0.43-0.5,1.09-0.55,1.65-0.05c1.48,1.32,2.93,2.67,4.4,4.01
	c0.65,0.6,1.32,1.17,1.97,1.78c0.81,0.77,0.62,1.68-0.44,2.02c-2.7,0.88-5.4,1.74-8.1,2.6c-0.74,0.24-1.32-0.02-1.52-0.63
	c-0.22-0.66,0.1-1.19,0.88-1.45c0.41-0.14,0.82-0.26,1.22-0.4c0.45-0.16,0.73-0.46,0.67-0.97c-0.06-0.5-0.39-0.72-0.87-0.79
	c-4.61-0.63-9,0.09-13.16,2.14c-5.98,2.95-9.97,7.65-11.99,14.01c-0.16,0.51-0.43,0.86-0.95,0.94c-0.46,0.07-0.85-0.1-1.11-0.5
	c-0.26-0.41-0.15-0.82-0.02-1.24c1.62-5.06,4.49-9.26,8.71-12.49C31.5,21.34,36.68,19.58,42.44,19.55"/>
<path class="st2" d="M49.08,112.08c-10.83,0.02-20.63-7.12-24-17.48c-0.17-0.52-0.33-1.04-1-1.02c-0.66,0.02-0.83,0.54-0.96,1.07
	c-0.08,0.32-0.17,0.65-0.31,0.95c-0.27,0.55-0.75,0.73-1.32,0.58c-0.56-0.14-0.8-0.57-0.77-1.13c0.01-0.19,0.07-0.37,0.13-0.55
	c0.79-2.6,1.58-5.21,2.37-7.81c0.15-0.5,0.35-0.96,0.91-1.1c0.6-0.15,0.98,0.19,1.36,0.59c1.85,2,3.7,4,5.56,5.99
	c0.33,0.35,0.56,0.71,0.45,1.21c-0.17,0.79-1.11,1.13-1.73,0.59c-0.36-0.31-0.67-0.68-1-1.03c-0.35-0.37-0.71-0.67-1.24-0.36
	c-0.54,0.31-0.54,0.76-0.36,1.3c1.16,3.51,3.04,6.56,5.64,9.19c0.92,0.93,1.87,1.87,2.94,2.56c2.71,1.75,5.61,3.13,8.82,3.74
	c2.63,0.5,5.26,0.59,7.91,0.2c0.74-0.11,1.31,0.25,1.39,0.88c0.1,0.73-0.29,1.22-1.07,1.33C51.56,111.97,50.33,112.07,49.08,112.08"
	/>
<path class="st2" d="M29.96,96.12c-0.03-0.06-0.07-0.13,0.02-0.17c0.02-0.01,0.07,0.04,0.11,0.06
	C30.05,96.05,30.01,96.08,29.96,96.12"/>
<path class="st2" d="M111.74,69.05c-0.01,3.92-1.12,8.07-3.32,11.92c-0.14,0.25-0.31,0.5-0.37,0.77c-0.16,0.71,0.51,1.24,1.21,0.97
	c0.4-0.15,0.77-0.37,1.17-0.53c0.61-0.25,1.22-0.05,1.48,0.46c0.28,0.55,0.08,1.22-0.53,1.51c-2.65,1.25-5.31,2.5-7.98,3.71
	c-0.88,0.4-1.68-0.17-1.6-1.15c0.23-2.88,0.49-5.76,0.75-8.64c0.07-0.74,0.58-1.17,1.23-1.12c0.65,0.05,1.02,0.54,0.99,1.32
	c-0.02,0.43-0.09,0.86-0.12,1.28c-0.04,0.5,0.09,0.91,0.62,1.07c0.52,0.15,0.86-0.11,1.12-0.55c1.42-2.44,2.44-5.04,2.83-7.83
	c1.19-8.31-1.26-15.36-7.42-21.09c-0.19-0.18-0.41-0.33-0.61-0.5c-0.59-0.53-0.67-1.18-0.21-1.7c0.43-0.48,1.09-0.51,1.66-0.02
	c1.97,1.73,3.74,3.64,5.15,5.88C110.42,58.96,111.72,63.49,111.74,69.05"/>
<path class="st0" d="M68.31,96.89c0-1.56,0-2.99,0-4.42c0-0.75,0.34-1.17,0.9-1.11c0.68,0.07,0.81,0.53,0.8,1.13
	C70,93.78,70.04,95.07,70,96.36c-0.01,0.52,0.1,0.7,0.66,0.7c2.32-0.03,4.64-0.01,6.96,0.01c0.4,0,0.54-0.11,0.53-0.52
	c-0.02-1.34,0-2.68,0-4.02c0-0.75,0.31-1.17,0.86-1.16c0.56,0,0.86,0.41,0.86,1.16c0,1.31,0.02,2.63-0.01,3.94
	c-0.01,0.59,0.21,0.59,0.62,0.37c0.62-0.34,0.95-0.86,0.96-1.57c0.01-0.93,0.02-1.86,0.01-2.8c-0.01-3.01-2.02-5.04-5.03-5.06
	c-1.39-0.01-2.77-0.02-4.16-0.02c-2.98-0.01-5.04,2.05-5.05,5.04c0,0.93,0,1.86,0,2.8C67.2,95.96,67.53,96.49,68.31,96.89
	 M74.29,98.75c-1.67,0-3.35,0.01-5.02,0c-2.36-0.01-3.8-1.45-3.77-3.81c0.01-1.36-0.14-2.73,0.14-4.07
	c0.59-2.93,3.17-5.09,6.16-5.14c1.7-0.03,3.39-0.03,5.09,0.01c3.44,0.08,6.23,2.95,6.26,6.4c0.01,1.03,0.02,2.06,0,3.08
	c-0.04,2.04-1.5,3.52-3.54,3.55c-1.77,0.03-3.54,0.01-5.31,0.01C74.29,98.76,74.29,98.76,74.29,98.75"/>
<path class="st0" d="M74.08,83.06c1.71-0.02,3.07-1.4,3.07-3.11c0-1.74-1.4-3.12-3.15-3.11c-1.7,0.01-3.08,1.41-3.08,3.11
	C70.94,81.7,72.34,83.08,74.08,83.06 M74.03,75.13c2.68,0,4.84,2.14,4.84,4.82c0,2.69-2.14,4.81-4.83,4.81
	c-2.65,0-4.8-2.14-4.8-4.78C69.23,77.28,71.35,75.14,74.03,75.13"/>
<path class="st0" d="M29.55,70.98c0-1.48-0.02-2.82,0.01-4.16c0.01-0.7,0.37-1.09,0.9-1.04c0.64,0.06,0.81,0.49,0.8,1.06
	c-0.02,1.24-0.01,2.49-0.04,3.73c-0.01,0.41,0.07,0.58,0.54,0.58c2.17,0,4.35,0.04,6.52,0.08c0.41,0.01,0.53-0.1,0.53-0.52
	c-0.02-1.22,0.01-2.44,0.02-3.66c0.01-0.8,0.32-1.2,0.91-1.18c0.56,0.02,0.82,0.4,0.81,1.19c0,1.36,0,2.72,0,4.08
	c0.89-0.19,1.34-0.68,1.37-1.57c0.04-1.03,0.06-2.06,0.02-3.08c-0.09-2.33-1.96-4.2-4.29-4.28c-1.6-0.05-3.2-0.05-4.8-0.03
	c-2.16,0.04-4.09,1.87-4.22,4.03c-0.07,1.1-0.04,2.2-0.04,3.3C28.58,70.13,28.87,70.59,29.55,70.98 M35.21,72.84
	c-1.67,0-3.34,0.02-5.01-0.01c-1.85-0.02-3.25-1.33-3.31-3.17c-0.04-1.45-0.15-2.92,0.14-4.36c0.57-2.79,3.04-4.82,5.87-4.85
	c1.6-0.02,3.2-0.01,4.8,0.03c3.25,0.09,5.92,2.81,5.97,6.07c0.01,1,0.01,2.01-0.01,3.01c-0.05,1.99-1.5,3.39-3.5,3.39
	c-1.65,0-3.3,0-4.94,0C35.21,72.92,35.21,72.88,35.21,72.84"/>
<path class="st0" d="M37.99,55.09c0-1.61-1.34-2.94-2.92-2.92c-1.57,0.03-2.87,1.35-2.86,2.91c0.01,1.6,1.35,2.93,2.93,2.92
	C36.71,57.98,38,56.67,37.99,55.09 M30.49,55.06c0.02-2.56,2.11-4.62,4.69-4.59c2.52,0.02,4.57,2.13,4.55,4.66
	c-0.02,2.54-2.08,4.59-4.62,4.59C32.55,59.72,30.47,57.63,30.49,55.06"/>
<path class="st0" d="M70.52,48.84c0-1.46-0.01-2.79,0-4.12c0.01-0.68,0.34-1.07,0.88-1.07c0.54,0,0.84,0.39,0.83,1.1
	c-0.01,1.22,0.01,2.44-0.04,3.65c-0.02,0.52,0.15,0.62,0.64,0.62c2.1,0,4.2,0.03,6.3,0.08c0.49,0.01,0.67-0.1,0.66-0.62
	c-0.03-1.19,0-2.39,0.01-3.58c0.01-0.75,0.31-1.16,0.85-1.17c0.55-0.01,0.87,0.41,0.87,1.15c-0.01,1.22-0.01,2.44-0.04,3.65
	c-0.01,0.51,0.15,0.6,0.57,0.34c0.51-0.31,0.8-0.75,0.81-1.35c0.02-1.03,0.07-2.05,0.04-3.08c-0.07-2.41-1.95-4.29-4.35-4.36
	c-1.5-0.04-3.01-0.07-4.51-0.04c-2.48,0.04-4.36,1.85-4.48,4.3c-0.05,0.95-0.04,1.91-0.05,2.87C69.54,47.87,69.76,48.42,70.52,48.84
	 M75.99,38.29c1.36,0.1,2.54-0.1,3.69,0.16c3.18,0.73,5.18,3.38,5.04,6.64c-0.03,0.79-0.06,1.57-0.08,2.36
	c-0.05,1.92-1.42,3.41-3.33,3.41c-3.46,0.01-6.93-0.04-10.39-0.13c-1.58-0.04-2.92-1.33-3.1-3.04c-0.15-1.49-0.14-3.02,0.16-4.49
	c0.62-3.01,3.14-4.94,6.26-4.92C74.89,38.29,75.53,38.29,75.99,38.29"/>
<path class="st0" d="M76.09,35.85c1.59,0.01,2.88-1.26,2.9-2.85c0.02-1.61-1.29-2.93-2.89-2.94c-1.61,0-2.9,1.3-2.89,2.93
	C73.21,34.57,74.5,35.84,76.09,35.85 M71.45,32.93c0-2.55,2.09-4.62,4.66-4.62c2.55,0,4.62,2.08,4.63,4.66
	c0,2.63-2.08,4.66-4.77,4.64C73.47,37.59,71.45,35.49,71.45,32.93"/>
<path class="st2" d="M68.31,96.89c-0.78-0.4-1.11-0.93-1.11-1.67c0-0.93,0-1.86,0-2.8c0.01-2.99,2.07-5.05,5.05-5.04
	c1.39,0,2.77,0.01,4.16,0.02c3.01,0.03,5.01,2.05,5.03,5.06c0,0.93,0,1.86-0.01,2.8c-0.01,0.7-0.34,1.23-0.96,1.57
	c-0.42,0.23-0.64,0.22-0.62-0.37c0.03-1.31,0.01-2.63,0.01-3.94c0-0.75-0.3-1.16-0.86-1.16c-0.55,0-0.86,0.41-0.86,1.16
	c-0.01,1.34-0.02,2.68,0,4.02c0.01,0.41-0.13,0.52-0.53,0.52c-2.32-0.02-4.64-0.03-6.96-0.01c-0.56,0.01-0.67-0.18-0.66-0.7
	c0.04-1.29,0-2.58,0.02-3.87c0.01-0.59-0.13-1.06-0.8-1.13c-0.57-0.06-0.9,0.36-0.9,1.11C68.31,93.9,68.31,95.33,68.31,96.89"/>
<path class="st2" d="M74.08,83.06c-1.74,0.02-3.14-1.36-3.15-3.11c-0.01-1.71,1.37-3.1,3.08-3.11c1.75-0.01,3.15,1.37,3.15,3.11
	C77.16,81.66,75.79,83.04,74.08,83.06"/>
<path class="st2" d="M29.55,70.98c-0.68-0.39-0.97-0.85-0.97-1.46c0-1.1-0.02-2.2,0.04-3.3c0.13-2.16,2.05-3.99,4.22-4.03
	c1.6-0.03,3.2-0.03,4.8,0.03c2.33,0.08,4.2,1.94,4.29,4.28c0.04,1.03,0.02,2.06-0.02,3.08c-0.03,0.89-0.48,1.37-1.37,1.57
	c0-1.36,0-2.72,0-4.08c0-0.79-0.26-1.17-0.81-1.19c-0.59-0.02-0.9,0.38-0.91,1.18c-0.01,1.22-0.04,2.44-0.02,3.66
	c0.01,0.41-0.12,0.52-0.53,0.52c-2.17-0.05-4.35-0.08-6.52-0.08c-0.47,0-0.55-0.17-0.54-0.58c0.03-1.24,0.02-2.49,0.04-3.73
	c0.01-0.57-0.16-1-0.8-1.06c-0.54-0.05-0.89,0.34-0.9,1.04C29.53,68.16,29.55,69.5,29.55,70.98"/>
<path class="st2" d="M37.99,55.09c0,1.58-1.29,2.89-2.85,2.91c-1.58,0.02-2.92-1.32-2.93-2.92c-0.01-1.56,1.29-2.88,2.86-2.91
	C36.66,52.15,37.99,53.48,37.99,55.09"/>
<path class="st2" d="M70.52,48.84c-0.76-0.43-0.99-0.97-0.98-1.63c0.01-0.96,0-1.91,0.05-2.87c0.12-2.45,1.99-4.26,4.48-4.3
	c1.5-0.02,3.01,0,4.51,0.04c2.4,0.07,4.27,1.95,4.35,4.36c0.03,1.02-0.02,2.05-0.04,3.08c-0.01,0.6-0.3,1.04-0.81,1.35
	c-0.42,0.25-0.59,0.16-0.57-0.34c0.03-1.22,0.04-2.44,0.04-3.65c0-0.74-0.32-1.16-0.87-1.15c-0.54,0.01-0.85,0.42-0.85,1.17
	c-0.01,1.19-0.04,2.39-0.01,3.58c0.01,0.52-0.17,0.63-0.66,0.62c-2.1-0.05-4.2-0.08-6.3-0.08c-0.49,0-0.66-0.11-0.64-0.62
	c0.05-1.22,0.03-2.44,0.04-3.65c0-0.71-0.3-1.09-0.84-1.1c-0.54,0-0.88,0.39-0.88,1.07C70.52,46.05,70.52,47.38,70.52,48.84"/>
<path class="st2" d="M76.09,35.85c-1.59-0.01-2.88-1.28-2.89-2.86c-0.01-1.62,1.28-2.93,2.89-2.93c1.6,0,2.91,1.33,2.89,2.94
	C78.97,34.59,77.68,35.86,76.09,35.85"/>
</svg>
