<?xml version="1.0" encoding="utf-8"?>
<!-- Generator: Adobe Illustrator 24.3.0, SVG Export Plug-In . SVG Version: 6.00 Build 0)  -->
<svg version="1.1" id="Layer_1" xmlns="http://www.w3.org/2000/svg" xmlns:xlink="http://www.w3.org/1999/xlink" x="0px" y="0px"
	 viewBox="0 0 127.56 127.56" style="enable-background:new 0 0 127.56 127.56;" xml:space="preserve">
<style type="text/css">
	.st0{fill:#414042;}
	.st1{fill:#C1B3D2;}
	.st2{fill:#FFFFFF;}
	.st3{fill:#BCCAC0;}
	.st4{fill:#CED8DD;}
	.st5{fill:none;stroke:#414042;stroke-width:2.059;stroke-miterlimit:10;}
	.st6{fill:none;stroke:#414042;stroke-width:3;stroke-miterlimit:10;}
	.st7{fill:none;stroke:#414042;stroke-width:1.5;stroke-miterlimit:10;}
</style>
<path class="st0" d="M61.58,40.6c0.76,1.24,1.38,2.25,2.16,3.51c0.81-1.35,1.4-2.33,2.11-3.51H61.58z M96.28,20.59
	c2-2.06,2.2-4.61,0.63-6.74c-1.49-2.02-3.92-2.67-6.19-1.49C94.2,14.03,95.88,16.87,96.28,20.59 M31.13,20.78
	c0.36-3.97,2.18-6.74,5.61-8.5c-2.38-1.04-4.64-0.46-6.13,1.44C28.98,15.81,29.07,18.16,31.13,20.78 M66.78,85.47
	c-0.46-2.09-0.81-4.08-1.39-6.01c-0.14-0.48-1.02-1.04-1.55-1.03c-0.63,0.02-1.65,0.49-1.8,0.98c-0.61,1.95-0.94,3.98-1.39,6.05
	H66.78z M50.07,74.64c0.79-6.6,3.41-12.87,2.33-19.66c-3.04,6.5-6.09,13.01-9.2,19.66H50.07z M84.19,74.52
	c-3.14-6.68-6.19-13.15-9.24-19.63c-0.3,0.08-0.61,0.16-0.91,0.25c0.77,4.68,1.48,9.37,2.31,14.04c1.04,5.87,1.08,5.86,7.1,5.55
	C83.59,74.72,83.73,74.65,84.19,74.52 M81.75,20.55c-0.03,2.86,2.46,5.54,5.11,5.5c3.11-0.04,5.7-2.54,5.69-5.49
	c-0.01-2.92-2.51-5.33-5.52-5.32C84.18,15.25,81.78,17.66,81.75,20.55 M40.18,26.05c3.17,0,5.56-2.4,5.52-5.53
	c-0.04-2.92-2.39-5.26-5.29-5.28c-3.12-0.02-5.59,2.44-5.55,5.53C34.9,23.62,37.35,26.05,40.18,26.05 M63.59,22.47
	c-3.95,0.05-7.11,3.28-7.09,7.26c0.02,3.94,3.28,7.17,7.2,7.14c4.06-0.03,7.27-3.3,7.2-7.37C70.85,25.58,67.55,22.41,63.59,22.47
	 M70.92,54.81c0-2.9,0.03-5.6-0.01-8.29c-0.02-1.71,0.76-2.48,2.46-2.43c1.65,0.04,3.31,0.05,4.96-0.01
	c4.34-0.13,8.03-3.16,8.64-7.44c0.32-2.26,0.06-4.6,0.06-6.87c-1.17-0.21-2.2-0.4-3.49-0.63c0,2.05,0.05,3.98-0.01,5.91
	c-0.11,3.17-2.27,5.32-5.44,5.42c-2.18,0.07-4.36-0.08-6.53,0.07c-0.73,0.05-1.66,0.58-2.07,1.18c-1.4,2.04-2.57,4.23-3.89,6.32
	c-1.26,1.98-2.49,2-3.73,0.04c-1.29-2.03-2.4-4.17-3.78-6.13c-0.5-0.7-1.54-1.32-2.39-1.4c-2.01-0.21-4.05-0.04-6.08-0.08
	c-3.54-0.07-5.68-2.24-5.74-5.82c-0.03-1.79-0.01-3.59-0.01-5.52c-1.28,0.24-2.36,0.45-3.6,0.68c0,1.82-0.04,3.61,0.01,5.4
	c0.11,4.85,3.89,8.68,8.73,8.86c1.58,0.06,3.16,0.08,4.73,0c2.06-0.11,2.84,0.81,2.77,2.82c-0.09,2.6-0.02,5.21-0.02,7.91H70.92z
	 M56.87,85.5c1.54-6.65,3.05-13.28,4.65-19.89c0.33-1.35,0.18-3.39,2.26-3.36c2.08,0.03,1.86,2.03,2.19,3.4
	c1.56,6.61,3.07,13.23,4.58,19.76h5.33c-1.79-9.04-3.55-17.89-5.31-26.72H56.85c-1.81,9.05-3.57,17.88-5.35,26.81H56.87z
	 M81.43,102.84c5.87-4.5,5.87-4.5,2.7-10.5c-0.24-0.46-0.53-0.92-0.71-1.41c-0.5-1.38-1.39-1.81-2.9-1.79
	c-9.32,0.08-18.63,0.03-27.95,0.05c-2.54,0.01-5.64-0.76-7.47,0.41c-1.94,1.24-2.67,4.37-3.92,6.68c-0.11,0.2-0.29,0.39-0.3,0.6
	c-0.02,0.41-0.12,0.97,0.1,1.23c1.45,1.68,2.97,3.29,4.53,4.98c2.66-2.67,4.87-4.92,7.11-7.14c1.88-1.87,2.34-1.87,4.22,0.05
	c2.25,2.29,4.45,4.62,6.78,7.05c2.42-2.45,4.52-4.58,6.64-6.71c2.39-2.4,2.57-2.41,5.01,0.08C77.36,98.53,79.4,100.72,81.43,102.84
	 M54.75,98.79c-2.63,2.67-4.98,4.99-7.26,7.37c-1.24,1.3-2.36,1.4-3.6,0.03c-1.6-1.78-3.24-3.51-5.08-5.5
	c-2.25,4.23-4.23,7.96-6.27,11.8h62.32c-2.08-3.9-4.04-7.58-6.16-11.55c-1.78,1.81-3.46,3.41-5.01,5.11
	c-1.39,1.53-2.57,1.46-3.93-0.03c-2.21-2.42-4.51-4.77-6.96-7.35c-2.63,2.71-4.96,5.04-7.21,7.44c-1.32,1.41-2.45,1.42-3.77,0.01
	C59.58,103.7,57.25,101.36,54.75,98.79 M51.62,47.91c-1.92-0.22-3.65-0.25-5.31-0.63c-5.58-1.28-9.46-6.11-9.65-11.83
	c-0.02-0.68,0.1-1.38-0.05-2.02c-0.37-1.7,1.08-3.74-1.04-5.12c-1.48-0.96-2.78-2.25-4.34-3.04c-3.49-1.75-5.44-4.4-5.5-8.32
	c-0.05-3.7,2.07-6.99,5.47-8.32c3.62-1.41,6.9-0.75,9.82,1.85c0.81,0.72,1.73,1.41,2.71,1.85c4.88,2.2,6.42,7.5,4.69,12.51
	c-1.13,3.3-0.69,7.16-0.76,10.77c-0.01,0.4,1.18,1.13,1.86,1.19c1.85,0.17,3.72,0.06,5.89,0.06c-2.17-3.27-3.46-6.62-2.03-10.14
	c0.87-2.13,2.28-4.29,4.01-5.76c3.72-3.15,9.33-2.82,13.11,0.28c4.47,3.66,5.05,8.71,1.63,15.61c2.02,0,3.97,0.19,5.85-0.09
	c0.72-0.11,1.84-1.28,1.83-1.95c-0.07-3.83,0.59-7.64-1.15-11.46c-1.93-4.27,0.7-9.15,5.13-11.07c0.92-0.4,1.82-0.99,2.54-1.69
	c2.73-2.62,6.6-3.43,10-1.98c3.32,1.42,5.58,4.76,5.45,8.36c-0.13,3.88-2.06,6.56-5.57,8.3c-1.83,0.91-3.44,2.27-5.08,3.53
	c-0.31,0.24-0.36,0.92-0.37,1.41c-0.05,1.43-0.01,2.85-0.01,4.28c-0.01,7.66-5.33,13.1-12.94,13.21c-0.59,0.01-1.19,0-2.13,0
	c0.41,0.96,0.7,1.7,1.04,2.41c3.82,8.15,7.65,16.3,11.47,24.45c1.36,2.89,0.78,3.78-2.44,3.8c-2.47,0.01-4.94,0-7.6,0
	c0.5,2.44,0.96,4.7,1.41,6.9c0.22,0.11,0.37,0.26,0.48,0.24c3.86-0.8,5.51,1.47,7.06,4.56c3.8,7.57,7.91,15,11.89,22.49
	c1.42,2.67,0.79,3.68-2.27,3.69c-22.01,0.01-44.02,0.01-66.03,0c-3.06,0-3.69-1.03-2.27-3.69c4.22-7.95,8.56-15.85,12.64-23.87
	c1.18-2.32,2.53-3.59,5.19-3.11c0.43,0.08,0.89,0.01,1.54,0.01c0.49-2.38,0.97-4.7,1.49-7.22c-2.65,0-5.12,0.01-7.59,0
	c-3.32-0.02-3.84-0.88-2.4-3.96c3.82-8.15,7.65-16.3,11.47-24.45C51.06,49.29,51.33,48.61,51.62,47.91"/>
<path class="st1" d="M54.75,98.79c2.5,2.58,4.83,4.91,7.07,7.31c1.32,1.41,2.46,1.4,3.77-0.01c2.25-2.4,4.58-4.73,7.21-7.44
	c2.46,2.59,4.75,4.93,6.96,7.35c1.36,1.49,2.55,1.56,3.93,0.03c1.55-1.7,3.23-3.3,5.01-5.11c2.12,3.97,4.08,7.65,6.16,11.55H32.55
	c2.04-3.84,4.02-7.57,6.27-11.8c1.84,1.99,3.48,3.72,5.07,5.5c1.24,1.38,2.36,1.27,3.6-0.03C49.78,103.78,52.12,101.46,54.75,98.79"
	/>
<path class="st3" d="M81.43,102.84c-2.03-2.12-4.07-4.31-6.16-6.44c-2.44-2.49-2.62-2.48-5.01-0.08c-2.12,2.12-4.22,4.26-6.64,6.71
	c-2.33-2.43-4.54-4.76-6.78-7.05c-1.89-1.92-2.34-1.92-4.22-0.05c-2.24,2.22-4.45,4.47-7.11,7.14c-1.55-1.69-3.08-3.31-4.53-4.98
	c-0.22-0.25-0.13-0.81-0.1-1.23c0.01-0.2,0.19-0.4,0.3-0.6c1.26-2.31,1.99-5.43,3.92-6.68c1.83-1.17,4.93-0.41,7.47-0.41
	c9.32-0.02,18.64,0.04,27.95-0.05c1.51-0.01,2.4,0.41,2.9,1.79c0.18,0.49,0.47,0.94,0.71,1.4C87.3,98.34,87.3,98.34,81.43,102.84"/>
<path class="st4" d="M56.87,85.5H51.5c1.78-8.93,3.55-17.76,5.35-26.81h13.72c1.75,8.82,3.51,17.68,5.31,26.72h-5.33
	c-1.51-6.53-3.01-13.15-4.58-19.76c-0.32-1.37-0.11-3.38-2.19-3.4c-2.09-0.03-1.94,2.01-2.26,3.36
	C59.92,72.21,58.42,78.84,56.87,85.5"/>
<path class="st3" d="M70.92,54.81H56.49c0-2.7-0.07-5.31,0.02-7.91c0.07-2.01-0.72-2.93-2.77-2.82c-1.57,0.08-3.15,0.06-4.73,0
	c-4.84-0.18-8.62-4.01-8.73-8.86c-0.04-1.79-0.01-3.58-0.01-5.4c1.24-0.23,2.32-0.44,3.6-0.68c0,1.94-0.02,3.73,0.01,5.52
	c0.06,3.58,2.19,5.75,5.74,5.82c2.03,0.04,4.07-0.12,6.08,0.08c0.85,0.09,1.89,0.7,2.39,1.4c1.39,1.95,2.49,4.1,3.78,6.12
	c1.24,1.96,2.47,1.94,3.73-0.04c1.32-2.09,2.5-4.28,3.89-6.32c0.41-0.6,1.34-1.13,2.07-1.18c2.17-0.16,4.35-0.01,6.53-0.07
	c3.18-0.1,5.34-2.25,5.44-5.42c0.07-1.93,0.01-3.86,0.01-5.91c1.29,0.23,2.32,0.42,3.49,0.63c0,2.27,0.27,4.61-0.06,6.87
	c-0.62,4.28-4.3,7.31-8.64,7.44c-1.65,0.05-3.31,0.05-4.96,0.01c-1.7-0.04-2.48,0.73-2.46,2.43C70.95,49.21,70.92,51.91,70.92,54.81
	"/>
<path class="st2" d="M63.59,22.47c3.96-0.05,7.25,3.11,7.32,7.03c0.07,4.07-3.14,7.35-7.2,7.37c-3.93,0.03-7.18-3.2-7.2-7.14
	C56.49,25.75,59.64,22.52,63.59,22.47"/>
<path class="st2" d="M40.18,26.05c-2.83,0-5.28-2.43-5.32-5.28c-0.04-3.09,2.43-5.55,5.55-5.53c2.9,0.02,5.25,2.36,5.29,5.28
	C45.75,23.65,43.35,26.05,40.18,26.05"/>
<path class="st2" d="M81.75,20.55c0.04-2.88,2.44-5.3,5.28-5.31c3.02-0.01,5.51,2.39,5.52,5.32c0.01,2.94-2.58,5.44-5.69,5.49
	C84.21,26.08,81.71,23.4,81.75,20.55"/>
<path class="st1" d="M84.19,74.52c-0.46,0.13-0.6,0.2-0.75,0.21c-6.02,0.31-6.06,0.32-7.1-5.55c-0.83-4.67-1.55-9.36-2.31-14.04
	c0.3-0.08,0.61-0.16,0.91-0.25C78,61.36,81.05,67.84,84.19,74.52"/>
<path class="st1" d="M50.07,74.64H43.2c3.11-6.66,6.16-13.16,9.2-19.66C53.49,61.77,50.87,68.04,50.07,74.64"/>
<path class="st2" d="M66.78,85.47h-6.13c0.45-2.07,0.79-4.1,1.39-6.05c0.15-0.49,1.17-0.96,1.8-0.98c0.52-0.02,1.4,0.55,1.55,1.03
	C65.97,81.38,66.32,83.37,66.78,85.47"/>
<path class="st2" d="M31.13,20.78c-2.06-2.62-2.16-4.97-0.52-7.06c1.49-1.9,3.75-2.48,6.13-1.44C33.32,14.04,31.5,16.81,31.13,20.78
	"/>
<path class="st2" d="M96.28,20.59c-0.4-3.72-2.08-6.55-5.56-8.23c2.27-1.18,4.7-0.53,6.19,1.49C98.48,15.98,98.28,18.53,96.28,20.59
	"/>
<path class="st1" d="M61.58,40.6h4.27c-0.71,1.17-1.3,2.16-2.11,3.51C62.96,42.85,62.34,41.84,61.58,40.6"/>
</svg>
