<?xml version="1.0" encoding="utf-8"?>
<!-- Generator: Adobe Illustrator 24.3.0, SVG Export Plug-In . SVG Version: 6.00 Build 0)  -->
<svg version="1.1" id="Layer_1" xmlns="http://www.w3.org/2000/svg" xmlns:xlink="http://www.w3.org/1999/xlink" x="0px" y="0px"
	 viewBox="0 0 127.56 127.56" style="enable-background:new 0 0 127.56 127.56;" xml:space="preserve">
<style type="text/css">
	.st0{fill:#414042;}
	.st1{fill:#C1B3D2;}
	.st2{fill:#FFFFFF;}
	.st3{fill:#BCCAC0;}
	.st4{fill:#CED8DD;}
	.st5{fill:none;stroke:#414042;stroke-width:2.059;stroke-miterlimit:10;}
	.st6{fill:none;stroke:#414042;stroke-width:3;stroke-miterlimit:10;}
	.st7{fill:none;stroke:#414042;stroke-width:1.5;stroke-miterlimit:10;}
</style>
<path class="st0" d="M30.58,30.27c3.01-0.05,5.47-2.6,5.36-5.56c-0.12-2.99-2.73-5.4-5.72-5.16c-3.23,0.26-4.9,2.26-5.12,5.33
	C24.87,27.81,27.57,30.31,30.58,30.27 M97.23,30.27c3-0.08,5.6-2.71,5.25-5.63c-0.36-3.06-2.12-4.98-5.35-5.11
	c-2.99-0.11-5.52,2.45-5.5,5.42C91.65,27.91,94.22,30.35,97.23,30.27 M113.38,74.67V61.66c-4.24,4.24-8.79,8.8-13,13.01H113.38z
	 M14.21,47.43v13.53c4.51-4.56,8.99-9.09,13.39-13.53H14.21z M13.12,74.24c6.96,1.47,11.47,0.54,15.57-4.12
	c6.18-7.02,13.15-13.35,19.76-20.01c0.72-0.72,1.27-1.62,2.28-2.93c-3.92,0-7.11-0.23-10.24,0.09c-1.83,0.19-4.01,0.8-5.29,2.01
	c-6.58,6.26-13,12.7-19.28,19.26C14.63,69.9,14.16,72.04,13.12,74.24 M53.85,74.88c3.57,0,5.74-0.23,7.84,0.05
	c4.56,0.6,7.82-1.09,10.94-4.45c6.38-6.87,13.2-13.34,19.82-19.99c0.83-0.84,1.53-1.81,2.77-3.31c-3.73,0-6.6-0.13-9.45,0.05
	c-1.78,0.11-4.12,0.08-5.22,1.14C71.84,56.75,63.36,65.37,53.85,74.88 M114.23,48c-7.41-2.13-12-0.18-16.14,4.62
	c-4.89,5.67-10.53,10.7-15.83,16.02c-1.78,1.78-3.54,3.58-6.18,6.24c4.73,0,8.15,0.19,11.54-0.08c1.56-0.13,3.41-0.78,4.5-1.84
	c6.65-6.42,13.2-12.95,19.59-19.63C112.99,52,113.39,49.85,114.23,48 M32.62,73.69c0.15,0.4,0.29,0.8,0.44,1.19
	c3.54,0,7.09,0.14,10.61-0.07c1.29-0.08,2.85-0.64,3.76-1.53c8.32-8.16,16.52-16.44,24.73-24.71c0.22-0.22,0.15-0.74,0.25-1.38
	c-3.03,0-5.91-0.16-8.77,0.06c-1.9,0.14-4.34,0.2-5.55,1.35C49.47,56.8,41.08,65.29,32.62,73.69 M33.68,41.25h60.08
	c0.79-3.17,0.88-5.47-2.74-7.35c-4.37-2.27-6-8-4.46-12.48c1.48-4.31,6.12-7.63,10.6-7.59c4.62,0.04,9.34,3.69,10.61,8.19
	c1.24,4.39-0.55,9.83-4.79,11.99c-3.25,1.66-3.39,3.82-2.64,7.47c3.49,0,7.17-0.03,10.85,0.01c6.31,0.07,8.06,1.79,8.09,7.94
	c0.03,7.94,0.06,15.88-0.01,23.83c-0.04,5.16-1.91,6.97-7.09,7.07c-3.61,0.07-7.22,0.07-10.83,0.12c-0.26,0-0.52,0.2-1.1,0.44v26.88
	c1.65,0.11,3.43-0.1,4.95,0.43c1.12,0.39,1.89,1.76,2.82,2.69c-0.94,0.92-1.83,2.58-2.81,2.63c-5.33,0.27-10.68,0.3-16.01,0.02
	c-1.05-0.06-2.01-1.85-3.02-2.84c0.98-0.88,1.82-2.13,2.96-2.53c1.41-0.49,3.07-0.26,4.83-0.35v-27.2H33.63v27.16
	c1.6,0.1,3.27-0.15,4.62,0.38c1.23,0.49,2.12,1.83,3.16,2.79c-0.95,0.9-1.87,2.52-2.87,2.57c-5.33,0.26-10.68,0.27-16.01,0.02
	c-1.03-0.05-1.98-1.62-2.97-2.49c1.01-0.99,1.86-2.38,3.07-2.87c1.24-0.5,2.83-0.11,4.64-0.11V80.33c-4.15,0-8.15,0.06-12.15-0.02
	c-4.88-0.1-6.77-1.97-6.82-6.9c-0.07-8.37-0.08-16.75,0.01-25.13c0.05-4.6,1.97-6.57,6.6-6.76c4.01-0.17,8.04-0.03,12.24-0.03
	c0.85-3.5,0.86-5.8-2.79-7.65c-4.17-2.11-5.84-7.79-4.48-12.09c1.38-4.38,5.87-7.81,10.36-7.92c4.64-0.12,9.48,3.37,10.85,7.83
	c1.35,4.39-0.23,9.97-4.4,12.13C33.34,35.52,32.97,37.69,33.68,41.25"/>
<path class="st1" d="M32.62,73.68c8.46-8.4,16.84-16.89,25.48-25.1c1.2-1.14,3.65-1.2,5.55-1.35c2.85-0.21,5.73-0.06,8.77-0.06
	c-0.11,0.64-0.03,1.16-0.25,1.38c-8.21,8.27-16.42,16.55-24.73,24.71c-0.9,0.89-2.47,1.45-3.76,1.53
	c-3.53,0.21-7.07,0.07-10.61,0.07C32.91,74.48,32.77,74.08,32.62,73.68"/>
<path class="st1" d="M114.23,48c-0.84,1.86-1.25,4-2.52,5.33c-6.39,6.68-12.94,13.21-19.59,19.63c-1.1,1.06-2.94,1.72-4.5,1.84
	c-3.39,0.27-6.81,0.08-11.54,0.08c2.64-2.67,4.4-4.46,6.18-6.24c5.31-5.32,10.94-10.35,15.83-16.02
	C102.24,47.82,106.82,45.87,114.23,48"/>
<path class="st2" d="M53.85,74.88c9.51-9.51,17.99-18.14,26.71-26.51c1.1-1.06,3.43-1.03,5.22-1.14c2.85-0.18,5.72-0.05,9.45-0.05
	c-1.25,1.5-1.94,2.47-2.77,3.31c-6.62,6.65-13.44,13.12-19.82,19.99c-3.12,3.36-6.37,5.05-10.94,4.44
	C59.59,74.65,57.42,74.88,53.85,74.88"/>
<path class="st2" d="M13.12,74.24c1.04-2.2,1.51-4.34,2.8-5.69c6.28-6.56,12.7-13,19.28-19.26c1.27-1.21,3.45-1.82,5.29-2.01
	c3.13-0.32,6.32-0.09,10.24-0.09c-1.01,1.31-1.56,2.2-2.28,2.93c-6.61,6.65-13.58,12.98-19.76,20.01
	C24.59,74.78,20.08,75.71,13.12,74.24"/>
<path class="st1" d="M14.21,47.43H27.6c-4.4,4.44-8.88,8.97-13.39,13.53V47.43z"/>
<path class="st2" d="M113.38,74.67h-13c4.2-4.21,8.76-8.77,13-13.01V74.67z"/>
<path class="st3" d="M97.23,30.27c-3.01,0.08-5.58-2.36-5.6-5.33c-0.02-2.96,2.51-5.53,5.5-5.42c3.23,0.12,4.99,2.05,5.35,5.11
	C102.83,27.55,100.23,30.19,97.23,30.27"/>
<path class="st3" d="M30.58,30.27c-3.01,0.05-5.71-2.45-5.49-5.39c0.22-3.07,1.9-5.07,5.12-5.33c3-0.24,5.61,2.18,5.72,5.16
	C36.05,27.67,33.59,30.22,30.58,30.27"/>
</svg>
